<?xml version="1.0" encoding="utf-8"?>
<!-- Generator: Adobe Illustrator 21.0.0, SVG Export Plug-In . SVG Version: 6.00 Build 0)  -->
<svg version="1.1" id="Tradicional" xmlns="http://www.w3.org/2000/svg" xmlns:xlink="http://www.w3.org/1999/xlink" x="0px"
	 y="0px" viewBox="0 0 987.1 441" style="enable-background:new 0 0 987.1 441;" xml:space="preserve">
<style type="text/css">
	.st0{fill:#C9A877;}
	.st1{fill:#A83338;}
</style>
<g>
	<path class="st0" d="M20.8,137V93.1v0v104.6v-56.4c82.7-51.9,263.1-88,471.5-88c208.4,0,388.1,36,470.8,88V137
		C880.4,75.8,700.7,33.4,492.3,33.4C283.9,33.4,103.6,75.8,20.8,137"/>
	<path class="st1" d="M89.6,395.6c0-9.2,0-10.8-0.1-12.7c-0.1-2-0.6-2.9-2.6-3.4c-0.5-0.1-1.5-0.2-2.1-0.2c-0.2,0-0.5-0.1-0.5-0.4
		c0-0.3,0.3-0.5,1-0.5c1.4,0,3,0,4.4,0.1l2.5,0.1c0.4,0,12.5,0,14-0.1c1.2-0.1,2.1-0.2,2.6-0.3c0.3-0.1,0.5-0.4,0.8-0.4
		c0.2,0,0.2,0.3,0.2,0.6c0,0.4-0.3,1.1-0.5,2.8c-0.1,0.6-0.2,3.2-0.3,3.9c-0.1,0.3-0.2,0.6-0.4,0.6c-0.4,0-0.5-0.3-0.5-0.8
		c0-0.4-0.1-1.4-0.4-2.1c-0.4-0.9-1-1.6-4.3-2c-1-0.1-7.7-0.2-8.3-0.2c-0.2,0-0.4,0.2-0.4,0.6v16.3c0,0.4,0.1,0.6,0.4,0.6
		c0.8,0,8.3,0,9.7-0.1c1.5-0.1,2.3-0.2,2.9-0.8c0.4-0.5,0.7-0.8,0.9-0.8c0.2,0,0.3,0.1,0.3,0.5c0,0.4-0.3,1.4-0.5,3.3
		c-0.1,1.2-0.2,3.4-0.2,3.8c0,0.5,0,1.1-0.4,1.1c-0.3,0-0.4-0.2-0.4-0.5c0-0.6,0-1.2-0.2-2c-0.2-0.8-0.8-1.8-3.2-2.1
		c-1.7-0.2-7.7-0.3-8.7-0.3c-0.3,0-0.4,0.2-0.4,0.4v5.2c0,2-0.1,8.8,0,10.1c0.2,4.1,1.1,4.8,7.1,4.8c1.6,0,4.3,0,5.9-0.7
		c1.6-0.7,2.3-1.8,2.7-4.2c0.1-0.7,0.2-0.9,0.5-0.9c0.4,0,0.4,0.5,0.4,0.9c0,0.5-0.5,4.5-0.8,5.7c-0.4,1.5-0.9,1.5-3.3,1.5
		c-4.6,0-7.9-0.1-10.3-0.2c-2.4-0.1-3.8-0.2-4.8-0.2c-0.1,0-1.2,0-2.4,0.1c-1.2,0-2.6,0.1-3.5,0.1c-0.7,0-1-0.1-1-0.5
		c0-0.2,0.1-0.3,0.5-0.3c0.5,0,1.3-0.1,1.8-0.2c1.2-0.2,1.5-1.5,1.8-3.2c0.3-2.5,0.3-7.1,0.3-12.8V395.6z"/>
	<path class="st1" d="M210.1,395.5c0-9.2,0-10.8-0.1-12.7c-0.1-2-0.6-2.9-2.6-3.4c-0.5-0.1-1.5-0.2-2.1-0.2c-0.2,0-0.5-0.1-0.5-0.4
		c0-0.3,0.3-0.9,1-0.9c2.7,0,6.5,0.3,7,0.3c1.3,0,4.8,0.1,7.6,0.1c7.6,0,10.4,2.5,11.3,3.4c1.3,1.2,3,3.9,3,7c0,8.4-6.3,14-15,14
		c-0.3,0-1,0-1.3-0.1c-0.3,0-0.7-0.1-0.7-0.4c0-0.5,0.4-0.5,1.6-0.5c5.9,0,10.5-4.2,10.5-9.6c0-1.9-0.2-5.9-3.4-9.1
		c-3.2-3.2-7-2.9-8.4-2.9c-1,0-2.1,0.1-2.6,0.4c-0.4,0.1-0.5,0.5-0.5,1.1v24.2c0,5.7,0,10.3,0.3,12.8c0.2,1.7,0.5,3,2.4,3.2
		c0.9,0.1,2.2,0.2,2.7,0.2c0.4,0,0.5,0.2,0.5,0.3c0,0.3-0.3,0.8-1,0.8c-3.4,0-7.2-0.2-7.5-0.2c-0.2,0-4,0.2-5.8,0.2
		c-0.7,0-1-0.4-1-0.8c0-0.2,0.1-0.3,0.5-0.3c0.5,0,1.3-0.1,1.8-0.2c1.2-0.2,1.5-1.5,1.8-3.2c0.3-2.5,0.3-7.1,0.3-12.8V395.5z"/>
	<path class="st1" d="M322.6,395.6c0-9.2,0-10.8-0.1-12.7c-0.1-2-0.6-2.9-2.6-3.4c-0.5-0.1-1.5-0.2-2.1-0.2c-0.2,0-0.5-0.1-0.5-0.3
		c0-0.4,0.3-0.5,1-0.5c1.4,0,3.1,0,4.4,0.1l2.5,0.1c0.4,0,12.6,0,14-0.1c1.2-0.1,2.1-0.2,2.6-0.3c0.3-0.1,0.5-0.4,0.8-0.4
		c0.2,0,0.2,0.3,0.2,0.6c0,0.4-0.3,1.1-0.5,2.8c-0.1,0.6-0.2,3.2-0.3,3.9c-0.1,0.3-0.2,0.6-0.4,0.6c-0.4,0-0.5-0.3-0.5-0.8
		c0-0.4-0.1-1.4-0.4-2.1c-0.4-0.9-1-1.6-4.3-2c-1-0.1-7.7-0.2-8.3-0.2c-0.2,0-0.4,0.2-0.4,0.6v16.3c0,0.4,0.1,0.6,0.4,0.6
		c0.8,0,8.3,0,9.7-0.1c1.5-0.1,2.3-0.2,2.9-0.8c0.4-0.5,0.7-0.8,0.9-0.8c0.2,0,0.3,0.1,0.3,0.5c0,0.4-0.3,1.4-0.5,3.3
		c-0.1,1.2-0.2,3.4-0.2,3.8c0,0.5,0,1.1-0.4,1.1c-0.3,0-0.4-0.2-0.4-0.5c0-0.6,0-1.2-0.2-1.9c-0.2-0.8-0.8-1.8-3.2-2.1
		c-1.6-0.2-7.7-0.3-8.7-0.3c-0.3,0-0.4,0.2-0.4,0.4v5.2c0,2-0.1,8.9,0,10.1c0.2,4.1,1.1,4.8,7.1,4.8c1.6,0,4.3,0,5.9-0.6
		c1.6-0.6,2.3-1.8,2.7-4.2c0.1-0.6,0.2-0.9,0.6-0.9c0.4,0,0.4,0.5,0.4,0.9c0,0.5-0.5,4.5-0.8,5.7c-0.4,1.5-0.9,1.5-3.3,1.5
		c-4.6,0-7.9-0.1-10.3-0.2c-2.4-0.1-3.8-0.2-4.8-0.2c-0.1,0-1.1,0-2.4,0.1c-1.2,0-2.6,0.3-3.5,0.3c-0.7,0-1-0.3-1-0.6
		c0-0.2,0.1-0.4,0.5-0.4c0.5,0,1.3-0.1,1.8-0.2c1.2-0.2,1.5-1.5,1.8-3.2c0.3-2.5,0.3-7.1,0.3-12.8V395.6z"/>
	<path class="st1" d="M366.6,395.6c0-9.2,0-10.8-0.1-12.7c-0.1-2-0.6-2.9-2.6-3.4c-0.5-0.1-1.5-0.2-2.1-0.2c-0.2,0-0.5-0.1-0.5-0.3
		c0-0.4,0.3-0.5,1-0.5c1.4,0,3,0,4.4,0.1l2.5,0.1c0.4,0,12.6,0,14-0.1c1.2-0.1,2.1-0.2,2.6-0.3c0.3-0.1,0.6-0.4,0.9-0.4
		c0.2,0,0.3,0.3,0.3,0.6c0,0.4-0.3,1.1-0.5,2.8c-0.1,0.6-0.2,3.2-0.3,3.9c-0.1,0.3-0.2,0.6-0.4,0.6c-0.4,0-0.5-0.3-0.5-0.8
		c0-0.4-0.1-1.4-0.4-2.1c-0.4-0.9-1-1.6-4.3-2c-1-0.1-7.7-0.2-8.3-0.2c-0.2,0-0.4,0.2-0.4,0.6v16.3c0,0.4,0.1,0.6,0.4,0.6
		c0.8,0,8.3,0,9.7-0.1c1.5-0.1,2.3-0.2,2.9-0.8c0.4-0.5,0.7-0.8,0.9-0.8c0.2,0,0.3,0.1,0.3,0.5c0,0.4-0.3,1.4-0.5,3.3
		c-0.1,1.2-0.2,3.4-0.2,3.8c0,0.5,0,1.1-0.4,1.1c-0.3,0-0.4-0.2-0.4-0.5c0-0.6,0-1.2-0.2-1.9c-0.2-0.8-0.8-1.8-3.2-2.1
		c-1.6-0.2-7.7-0.3-8.7-0.3c-0.3,0-0.4,0.2-0.4,0.4v5.2c0,2-0.1,8.9,0,10.1c0.2,4.1,1.1,4.8,7.1,4.8c1.6,0,4.3,0,5.8-0.6
		c1.6-0.6,2.3-1.8,2.8-4.2c0.1-0.6,0.2-0.9,0.5-0.9c0.4,0,0.4,0.5,0.4,0.9c0,0.5-0.5,4.5-0.8,5.7c-0.4,1.5-0.9,1.5-3.3,1.5
		c-4.6,0-7.9-0.1-10.3-0.2c-2.4-0.1-3.8-0.2-4.8-0.2c-0.1,0-1.2,0-2.4,0.1c-1.2,0-2.6,0.3-3.5,0.3c-0.7,0-1-0.3-1-0.6
		c0-0.2,0.1-0.4,0.5-0.4c0.5,0,1.3-0.1,1.8-0.2c1.2-0.2,1.5-1.5,1.8-3.2c0.3-2.5,0.3-7.1,0.3-12.8V395.6z"/>
	<path class="st1" d="M413.9,415.1c0.1,4.8,0.7,6.4,2.4,6.8c1.2,0.3,2.5,0.3,3,0.3c0.3,0,0.5,0.1,0.5,0.4c0,0.3-0.4,0.6-1.1,0.6
		c-3.5,0-5.9-0.3-6.5-0.3c-0.5,0-3.1,0.3-5.8,0.3c-0.6,0-1-0.2-1-0.6c0-0.2,0.2-0.4,0.5-0.4c0.5,0,1.6,0,2.5-0.3
		c1.5-0.4,1.8-2.1,1.8-7.5l0.1-33.8c0-2.3,0.2-2.7,0.7-2.7c0.5,0,1.5,1.1,2.1,1.7c0.9,1,10,10.5,19.4,20.2
		c6,6.3,12.7,13.4,14.6,15.4l-0.7-29.9c-0.1-3.8-0.5-5.1-2.4-5.6c-1.1-0.2-2.5-0.3-3-0.3c-0.4,0-0.5-0.2-0.5-0.4
		c0-0.4,0.5-0.4,1.2-0.4c2.7,0,5.7,0.2,6.3,0.2c0.7,0,2.7-0.2,5.2-0.2c0.7,0,1.1,0.1,1.1,0.4c0,0.2-0.2,0.4-0.7,0.4
		c-0.3,0-0.7,0-1.5,0.2c-2,0.4-2.3,1.7-2.3,5.2l-0.1,34.5c0,3.9-0.1,3.9-0.5,3.9c-0.5,0-1.2-0.3-4.5-3.5c-0.7-0.6-9.4-9.2-15.9-16
		c-7.1-7.4-14-14.8-15.9-16.9L413.9,415.1z"/>
	<path class="st1" d="M476.8,395.2c0-9.2,0-10.8-0.1-12.7c-0.1-2-0.6-2.9-2.6-3.4c-0.5-0.1-1.5-0.2-2.1-0.2c-0.2,0-0.5-0.1-0.5-0.4
		c0-0.4,0.3-0.5,1-0.5c2.7,0,6.6,0.2,6.9,0.2c0.7,0,4.6-0.2,8.2-0.2c6,0,17.2-0.5,24.5,6.7c3,3.1,5.9,8,5.9,15
		c0,7.4-3.2,13.1-6.6,16.6c-2.6,2.6-8.1,6.8-18.5,6.8c-2.6,0-5.9-0.2-8.5-0.4c-2.7-0.2-4.7-0.1-5-0.1c-0.1,0-1.3,0-2.5,0.1
		c-1.2,0-2.5,0.4-3.4,0.4c-0.7,0-1-0.7-1-1.1c0-0.2,0.1-0.4,0.5-0.4c0.6,0,1.3-0.1,1.8-0.2c1.2-0.2,1.5-1.5,1.8-3.2
		c0.3-2.5,0.3-7.1,0.3-12.8V395.2z M481.9,401.6c0,6.2,0.1,11.7,0.1,12.8c0.1,1.5,0.2,3.8,0.7,4.5c0.8,1.1,3.2,2.4,10.4,2.4
		c5.7,0,10.9-2,14.5-5.5c3.2-3,4.9-8.7,4.9-14.1c0-7.5-3.4-12.3-5.8-14.9c-5.7-5.8-12.7-6.7-19.9-6.7c-1.2,0-3.5,0.2-4,0.4
		c-0.5,0.2-0.7,0.5-0.7,1.2c-0.1,2-0.1,8-0.1,12.5V401.6z"/>
	<path class="st1" d="M544.7,405.9c0,5.7,0,10.3,0.3,12.8c0.2,1.7,0.5,3,2.4,3.2c0.9,0.1,2.2,0.2,2.8,0.2c0.4,0,0.5,0.2,0.5,0.4
		c0,0.3-0.3,0.8-1,0.8c-3.4,0-7.3-0.3-7.6-0.3c-0.3,0-4.1,0.3-5.9,0.3c-0.7,0-1-0.4-1-0.8c0-0.2,0.1-0.4,0.5-0.4
		c0.5,0,1.3-0.1,1.8-0.2c1.2-0.2,1.5-1.5,1.8-3.2c0.3-2.5,0.3-7.1,0.3-12.8v-10.4c0-9.2,0-10.8-0.1-12.7c-0.1-2-0.7-3-2.1-3.3
		c-0.7-0.2-1.5-0.2-1.9-0.2c-0.2,0-0.5-0.1-0.5-0.4c0-0.3,0.3-0.9,1-0.9c2,0,6,0.4,6.3,0.4c0.3,0,4-0.4,5.8-0.4c0.7,0,1,0.5,1,0.9
		c0,0.2-0.2,0.4-0.5,0.4c-0.4,0-0.8,0.1-1.5,0.2c-1.6,0.3-2.1,1.3-2.3,3.4c-0.1,1.9-0.1,3.5-0.1,12.7V405.9z"/>
	<path class="st1" d="M649.4,395.6c0-9.2,0-10.8-0.1-12.7c-0.1-2-0.6-2.9-2.6-3.4c-0.5-0.1-1.5-0.2-2.1-0.2c-0.2,0-0.5-0.1-0.5-0.3
		c0-0.4,0.3-0.5,1-0.5c1.4,0,3,0,4.4,0.1l2.5,0.1c0.4,0,12.6,0,14-0.1c1.2-0.1,2.1-0.2,2.6-0.3c0.3-0.1,0.5-0.4,0.9-0.4
		c0.2,0,0.2,0.3,0.2,0.6c0,0.4-0.3,1.1-0.5,2.8c-0.1,0.6-0.2,3.2-0.3,3.9c-0.1,0.3-0.2,0.6-0.4,0.6c-0.3,0-0.5-0.3-0.5-0.8
		c0-0.4-0.1-1.4-0.4-2.1c-0.4-0.9-1-1.6-4.3-2c-1.1-0.1-7.7-0.2-8.4-0.2c-0.2,0-0.4,0.2-0.4,0.6v16.3c0,0.4,0.1,0.6,0.4,0.6
		c0.8,0,8.3,0,9.7-0.1c1.5-0.1,2.3-0.2,2.9-0.8c0.4-0.5,0.7-0.8,0.9-0.8c0.2,0,0.3,0.1,0.3,0.5c0,0.4-0.3,1.4-0.5,3.3
		c-0.1,1.2-0.2,3.4-0.2,3.8c0,0.5,0,1.1-0.4,1.1c-0.3,0-0.4-0.2-0.4-0.5c0-0.6,0-1.2-0.2-1.9c-0.2-0.8-0.8-1.8-3.2-2.1
		c-1.6-0.2-7.7-0.3-8.7-0.3c-0.3,0-0.4,0.2-0.4,0.4v5.2c0,2-0.1,8.9,0,10.1c0.2,4.1,1.1,4.8,7.1,4.8c1.6,0,4.3,0,5.8-0.6
		c1.6-0.6,2.3-1.8,2.7-4.2c0.1-0.6,0.2-0.9,0.5-0.9c0.4,0,0.4,0.5,0.4,0.9c0,0.5-0.5,4.5-0.8,5.7c-0.4,1.5-0.9,1.5-3.3,1.5
		c-4.6,0-7.9-0.1-10.3-0.2c-2.4-0.1-3.8-0.2-4.8-0.2c-0.1,0-1.1,0-2.4,0.1c-1.2,0-2.6,0.3-3.5,0.3c-0.7,0-1-0.3-1-0.6
		c0-0.2,0.1-0.4,0.5-0.4c0.6,0,1.3-0.1,1.8-0.2c1.2-0.2,1.5-1.5,1.8-3.2c0.3-2.5,0.3-7.1,0.3-12.8V395.6z"/>
	<path class="st1" d="M696.7,415.1c0.1,4.8,0.7,6.4,2.4,6.8c1.2,0.3,2.5,0.3,3,0.3c0.3,0,0.5,0.1,0.5,0.4c0,0.3-0.4,0.6-1.1,0.6
		c-3.5,0-5.9-0.3-6.5-0.3c-0.5,0-3.1,0.3-5.9,0.3c-0.6,0-1-0.2-1-0.6c0-0.2,0.2-0.4,0.5-0.4c0.5,0,1.6,0,2.5-0.3
		c1.5-0.4,1.8-2.1,1.8-7.5l0.1-33.8c0-2.3,0.2-2.7,0.7-2.7c0.5,0,1.5,1.1,2.1,1.7c0.9,1,10,10.5,19.4,20.2
		c6,6.3,12.7,13.4,14.6,15.4l-0.7-29.9c-0.1-3.8-0.5-5.1-2.4-5.6c-1.1-0.2-2.5-0.3-3-0.3c-0.4,0-0.5-0.2-0.5-0.4
		c0-0.4,0.5-0.4,1.2-0.4c2.7,0,5.7,0.2,6.3,0.2c0.7,0,2.7-0.2,5.2-0.2c0.7,0,1.1,0.1,1.1,0.4c0,0.2-0.2,0.4-0.7,0.4
		c-0.3,0-0.7,0-1.5,0.2c-2,0.4-2.3,1.7-2.3,5.2l-0.1,34.5c0,3.9-0.1,3.9-0.6,3.9c-0.5,0-1.2-0.3-4.4-3.5c-0.7-0.6-9.4-9.2-15.9-16
		c-7.1-7.4-14-14.8-15.9-16.9L696.7,415.1z"/>
	<path class="st1" d="M835.2,378c13.7,0,23.9,8,23.9,21.7c0,13.2-9.6,23.6-24.3,23.6c-16.7,0-23.7-12.1-23.7-22.7
		C811.2,391.1,818.4,378,835.2,378 M836.5,421.5c5.5,0,16.8-3.1,16.8-20.2c0-14.1-8.9-21.7-18.5-21.7c-10.2,0-17.8,6.5-17.8,19.4
		C817,412.7,825.5,421.5,836.5,421.5"/>
	<path class="st1" d="M877.1,422.2c-0.9-0.4-0.9-0.7-0.9-2.2c0-2.9,0.3-5.3,0.3-6.2c0-0.7,0.2-0.9,0.5-0.9c0.4,0,0.4,0.2,0.4,0.7
		c0,0.5,0,1.4,0.2,2.2c0.9,4.4,4.9,6,9,6c5.8,0,8.7-4.1,8.7-7.8c0-4.1-1.8-6.4-7-10.6l-2.8-2.2c-6.5-5.1-7.9-8.8-7.9-12.8
		c0-6.3,4.9-10.2,12.6-10.2c2.4,0,4.2,0.2,5.7,0.5c1.2,0.2,1.6,0.2,2.1,0.2c0.5,0,0.6,0.5,0.6,0.8c0,0.3-0.2,1.6-0.2,5.7
		c0,0.9-0.1,1.4-0.4,1.4c-0.4,0-0.4-0.3-0.5-0.8c-0.1-0.7-0.4-2.3-0.8-2.9c-0.4-0.7-2-3.1-7.6-3.1c-4.2,0-7.5,2.5-7.5,6.8
		c0,3.4,1.6,5.5,7.4,9.9l1.7,1.3c7.2,5.5,8.9,9.1,8.9,13.8c0,2.4-1,6.9-5.2,9.8c-2.6,1.8-5.9,2-9.2,2
		C882.4,423.3,879.6,423.4,877.1,422.2"/>
	<path class="st1" d="M299.6,422.3c-0.4,0-1,0-2.3-0.2c-1.6-0.2-3.7-0.8-7.1-4.1c-3.7-3.7-8.2-9.1-13.4-15.5c6-4.9,7.9-9.2,7.9-13.6
		c0-4.2-2.8-7-4.4-8.2c-3.3-2.2-7.9-2.6-11.9-2.6c-2,0-7.3,0.1-8,0.1c-0.4,0-4.6-0.2-7.6-0.2c-0.7,0-1,0.2-1,0.6
		c0,0.2,0.3,0.5,0.5,0.5c0.6,0,1.7,0.1,2.2,0.2c2.1,0.3,2.5,1.3,2.6,3.3c0.1,1.9,0.1,3.6,0.1,12.9v10.6c0,5.8,0,10.5-0.4,12.9
		c-0.3,1.8-0.4,2.9-1.7,3.2c-0.6,0.1-1.4,0.3-2,0.3c-0.4,0-0.5,0.3-0.5,0.5c0,0.3,0.4,0.5,1,0.5c2,0,6.3-0.2,6.3-0.2
		c0.3,0,4.4,0.2,7.8,0.2c0.7,0,1-0.2,1-0.5c0-0.2-0.1-0.5-0.5-0.5c-0.6,0-2-0.1-2.8-0.3c-2-0.3-2.3-1.4-2.5-3.2
		c-0.2-1.9-0.3-37.6-0.3-37.6c0-0.4,0.2-0.6,0.5-0.7c0.7-0.1,2.7-0.4,4.6-0.4c6.8,0,11.1,4.3,11.1,11.7c0,4.6-1.7,7.7-3.9,9.1
		c-1.1,0.7-3.7,1-4.9,1.1c0.1,0.7,6.3,7.9,9,11.2c3.6,4.5,6,7.4,8.7,8.8c1.6,0.8,3.2,1.2,6.8,1.2h4c1.2,0,1.5-0.2,1.5-0.5
		C300.2,422.6,300,422.3,299.6,422.3"/>
	<path class="st1" d="M626.5,422.4c-0.5,0-0.9,0-1.8-0.2c-1.5-0.3-2.6-1.5-3.2-3c0,0-0.5-1.3-0.7-3.5l-4.1-36.2
		c-0.1-1.1-0.3-1.6-0.7-1.6c-0.4,0-0.7,0.4-0.9,0.9l-17.9,37l-18.7-37.1c-0.3-0.6-0.5-0.9-0.9-0.9c-0.4,0-0.6,0.4-0.7,1.1l-4.4,38.4
		c-0.2,2.2-0.4,4.5-2.4,4.9c-0.9,0.2-1.4,0.2-1.8,0.2c-0.3,0-0.6,0.1-0.6,0.3c0,0.4,0.4,0.4,1,0.4c1.6,0,4.6-0.1,5.1-0.1
		c0.5,0,3.4,0.1,5.7,0.1c0.7,0,1.1,0,1.1-0.4c0-0.2-0.2-0.3-0.5-0.3c-0.4,0-1.3-0.1-2.3-0.3c-0.9-0.2-1.6-1-1.6-1.8c0-1,0-2.1,0.1-3
		l2.4-27.4h0.2c0.7,1.6,7.5,15.7,8,16.8c0.3,0.6,5.5,10.8,7.1,13.7c1.2,2.1,1.5,2.7,1.9,2.7c0.5,0,0.7-0.6,2-3.2l14.9-30.6h0.2
		l2.9,29.7c0,0.4,0.1,0.8,0.1,1.2c0,0.9-0.9,1.6-1.8,1.8c-1,0.2-2,0.3-2.3,0.3c-0.3,0-0.5,0.1-0.5,0.3c0,0.4,0.4,0.5,1.1,0.5
		c2.3,0,6.7-0.1,7.2-0.1c0.5,0,4.6,0.1,6.3,0.1c0.6,0,1.1-0.2,1.1-0.6C627.1,422.5,626.7,422.4,626.5,422.4"/>
	<path class="st1" d="M793.8,378c-0.3,0-0.9,0.2-1.8,0.3c-1,0.1-2.5,0.3-4.6,0.3h-26.5c-2.1,0-3.5-0.1-4.6-0.3
		c-0.9-0.1-1.5-0.3-1.8-0.3c-0.3,0-0.3,0.4-0.3,0.7c0,1.8,0.2,6.1,0.2,6.8c0,0.5,0.3,0.8,0.6,0.8c0.3,0,0.4-0.2,0.5-1l0.1-0.6
		c0.2-1.8,1.6-3.2,7.7-3.3l8-0.1v25c0,5.7,0,10.4-0.3,12.9c-0.2,1.7-0.5,2.9-2.5,3.1c-0.9,0.2-2.3,0.3-2.9,0.3
		c-0.4,0-0.5,0.3-0.5,0.5c0,0.3,0.3,0.4,1,0.4c2.9,0,6.2-0.1,7.4-0.1v0c0.3,0,0.5,0,0.7,0c0.2,0,0.4,0,0.7,0v0
		c1.2,0,4.5,0.1,7.4,0.1c0.7,0,1-0.1,1-0.4c0-0.2-0.1-0.5-0.5-0.5c-0.6,0-2-0.1-2.9-0.3c-1.9-0.3-2.2-1.4-2.4-3.1
		c-0.3-2.4-0.3-7.1-0.3-12.9v-25l8,0.1c6.1,0.1,7.4,1.5,7.7,3.3l0.1,0.6c0.1,0.8,0.2,1,0.5,1c0.3,0,0.6-0.3,0.6-0.8
		c0-0.7,0.2-5,0.2-6.8C794.1,378.3,794.1,378,793.8,378"/>
	<path class="st1" d="M187.1,422.4c-0.5,0-0.9,0-1.8-0.2c-1.5-0.3-2.6-1.5-3.2-3c0,0-0.5-1.3-0.7-3.5l-4.1-36.2
		c-0.1-1.1-0.3-1.6-0.7-1.6c-0.4,0-0.7,0.4-0.9,0.9l-17.9,37l-18.6-37.1c-0.3-0.6-0.5-0.9-0.9-0.9c-0.4,0-0.6,0.4-0.7,1.1l-4.4,38.4
		c-0.2,2.2-0.4,4.5-2.4,4.9c-0.9,0.2-1.3,0.2-1.8,0.2c-0.3,0-0.6,0.1-0.6,0.3c0,0.4,0.4,0.4,1,0.4c1.6,0,4.6-0.1,5.1-0.1
		c0.5,0,3.4,0.1,5.7,0.1c0.7,0,1.1,0,1.1-0.4c0-0.2-0.2-0.3-0.5-0.3c-0.4,0-1.3-0.1-2.3-0.3c-0.9-0.2-1.6-1-1.6-1.8c0-1,0-2.1,0.1-3
		l2.4-27.4h0.2c0.7,1.6,7.5,15.7,8.1,16.8c0.3,0.6,5.5,10.8,7.1,13.7c1.2,2.1,1.5,2.7,1.9,2.7c0.6,0,0.7-0.6,2-3.2l14.9-30.6h0.2
		l2.9,29.7c0,0.4,0.1,0.8,0.1,1.2c0,0.9-0.9,1.6-1.8,1.8c-1,0.2-2,0.3-2.3,0.3c-0.3,0-0.5,0.1-0.5,0.3c0,0.4,0.4,0.5,1.1,0.5
		c2.2,0,6.7-0.1,7.2-0.1c0.5,0,4.6,0.1,6.3,0.1c0.6,0,1-0.2,1-0.6C187.7,422.5,187.4,422.4,187.1,422.4"/>
	<path class="st1" d="M20.8,141.3v182.2c0,23.7,18.7,36.4,42.4,36.4h856.9c23.7,0,43-12.7,43-36.5V141.2
		c-82.7-51.9-262.4-87.9-470.8-87.9C283.9,53.3,103.6,89.4,20.8,141.3"/>
	<path class="st1" d="M920.1,15.6l-856.9,0c-23.7,0-42.4,19.8-42.4,43.5V137C103.6,75.8,283.9,33.4,492.3,33.4S880.4,75.8,963.1,137
		V58.8C963.1,35.1,943.9,15.6,920.1,15.6"/>
	<path class="st0" d="M187,188.5c0,1.9-1.1,3-2.2,3c-1.1,0-1.6-0.8-1.9-4l-0.3-2.4c-0.8-7-5.9-12.1-28.5-12.6l-29.6-0.5v96.1
		c0,22.1,0,40.1,1.1,49.5c0.8,6.7,1.9,11,9.1,12.1c3.2,0.5,6.7,1.3,8.8,1.3c1.6,0,1.9,1.1,1.9,1.9c0,1.1-1.1,1.9-3.8,1.9
		c-10.7,0-21-0.7-25.6-1v0.1c-1.1,0-1.9-0.1-2.5-0.1c-0.6,0-1.4,0.1-2.5,0.1v-0.1c-4.6,0.2-12.5,1-23.2,1c-2.7,0-3.8-0.8-3.8-1.9
		c0-0.8,0.3-1.9,1.9-1.9c2.2,0,3.2-0.7,6.4-1.3c7.3-1.1,8.3-5.4,9.2-12.1c1.1-9.4,1.1-27.5,1.1-49.5v-96.1l-29.6,0.5
		c-22.6,0.5-27.7,5.7-28.5,12.6l-0.3,2.4c-0.3,3.2-0.8,4-1.9,4c-1.1,0-2.1-1.1-2.1-3c0-2.7-0.8-19.1-0.8-26.1c0-1.3,0-2.7,1.1-2.7
		c1.1,0,3.2,0.5,6.7,1.1c3.8,0.5,9.1,1.1,17,1.1h98.8c7.8,0,13.2-0.5,17-1.1c3.5-0.5,5.6-1.1,6.7-1.1c1.1,0,1.1,1.3,1.1,2.7
		C187.8,169.4,187,185.8,187,188.5"/>
	<path class="st0" d="M305.3,328.5c-1.6,5.9-4,5.9-13.1,5.9c-17.7,0-31.3-0.5-41-0.8c-9.9-0.5-16.1-0.5-19.6-0.5
		c-0.5,0-5.1,0-10.2,0.3c-4.5,0.3-9.9,0.5-13.7,0.5c-2.4,0-3.7-0.5-3.7-1.9c0-0.8,0.5-1.9,1.9-1.9c2.1,0,5.1-0.8,7.2-1.1
		c4.6-0.8,5.1-5.4,6.2-12.1c1.3-9.4,1.3-27.3,1.3-49.3v-40.2c0-35.4,0-41.8-0.5-49c-0.5-7.8-1.9-11.5-9.6-12.6
		c-1.9-0.3-5.9-0.5-8-0.5c-0.8,0-1.9-1.1-1.9-1.9c0-1.3,1.1-1.9,3.7-1.9c10.7,0,26,0.5,27.3,0.5c1.6,0,50.9,0.3,56.2,0
		c4.6-0.3,8.9-1.1,10.7-1.3c1.1-0.3,2.1-1.1,3.2-1.1c0.8,0,1.1,1.1,1.1,2.1c0,1.6-1.3,4.3-1.9,10.7c-0.3,2.1-0.8,12.3-1.3,15
		c-0.3,1.1-1.1,2.4-2.1,2.4c-1.4,0-1.9-1.1-1.9-2.9c0-1.6-0.3-5.4-1.3-8.1c-1.6-3.7-4-5.4-16.9-7c-4-0.5-31.3-0.8-34-0.8
		c-1.1,0-1.3,0.8-1.3,2.4v61.9c0,1.6,0,2.4,1.3,2.4c2.9,0,34,0,39.4-0.5c5.6-0.5,9.1-0.8,11.5-3.2c1.6-1.6,2.7-2.9,3.5-2.9
		c0.8,0,1.3,0.5,1.3,1.9c0,1.3-1.3,5.1-1.9,12.6c-0.5,4.6-1.1,13.1-1.1,14.7c0,1.9-0.5,4.3-2.1,4.3c-1.1,0-1.6-0.8-1.6-2.1
		c0-2.2,0-4.6-1.1-7.5c-0.8-3.2-3-5.9-12.1-7c-6.4-0.8-31.6-1.1-35.6-1.1c-1.3,0-1.6,0.8-1.6,1.6v19c0,7.8-0.3,34.3,0,38.8
		c0.5,15.3,4.8,18.2,28.1,18.2c6.2,0,17.4,0,23.6-2.4c6.2-2.7,9.4-6.7,10.7-15.8c0.5-2.7,1.1-3.5,2.4-3.5c1.4,0,1.6,1.9,1.6,3.5
		C308.5,308.1,306.6,323.7,305.3,328.5"/>
	<path class="st0" d="M847.4,143.8c8.2-5.7,29.2-18.3,30.8-19.2c3.9-2.3,5.2-3,6.4-3c0.7,0,1.1,0.5,2.3,2c1.6,2.3,3.2,5.4,5.7,10
		c1.1,2,0,2.7-0.9,2.7c-0.7,0-2.9-0.5-6.8,0c-11.1,1.1-27,6.3-34.4,9.5c-1.6,0.7-2.9,1.1-3.4,1.1c-0.5,0-1.1-0.5-1.1-1.4
		C845.9,145,846.3,144.5,847.4,143.8"/>
	<path class="st0" d="M525.9,162.1c15,0,31.6,1.3,43.9,9.9c5.9,4.3,16.3,15.3,16.3,31.1c0,16.9-7,33.2-28.9,52
		c19.3,24.1,35.6,44.7,49.3,58.9c12.6,12.9,20.4,15,26.2,15.8c4.6,0.8,7,0.8,8.3,0.8c1.4,0,2.1,1.1,2.1,1.9c0,1.3-1.3,1.9-5.6,1.9
		h-14.7c-13.4,0-19.3-1.3-25.2-4.6c-10.2-5.4-18.8-16.3-32.2-33.5c-9.9-12.3-32.5-39.9-33.1-42.6c4.4-0.2,13.8-1.3,18.1-4.1
		c8.1-5.4,14.2-17.4,14.2-34.8c0-28.4-15.6-44.7-40.7-44.7c-6.9,0-14.5,0.8-16.9,1.3c-1.1,0.5-1.9,1.3-1.9,2.7
		c0,0,0.2,135.9,1.1,143.3c0.8,6.7,2.1,11,9.4,12c3.2,0.5,8.3,1.1,10.4,1.1c1.6,0,1.9,1.1,1.9,1.9c0,1.1-1.1,1.9-3.7,1.9
		c-9.5,0-20.1-0.4-25.5-0.7c-0.8,0.5-2.3,0.7-4.9,0.7h-14.7c-1.3,0-2.5,0-3.7,0c-1.3,0-2.4,0-3.4,0c-1,0-1.7-0.1-2.4-0.3
		c-7.1-0.6-11.4-1.9-15.7-4.2c-10.2-5.4-18.8-16.3-32.2-33.5c-9.9-12.3-32.5-39.9-33.1-42.6c4.4-0.2,13.8-1.3,18.1-4.1
		c8-5.4,14.2-17.4,14.2-34.8c0-28.4-15.5-44.7-40.7-44.7c-7,0-14.5,0.8-16.9,1.3c-1.1,0.5-1.9,1.3-1.9,2.7c0,0,0.2,135.9,1.1,143.3
		c0.8,6.7,2.1,11,9.4,12c3.2,0.5,8.3,1.1,10.5,1.1c1.6,0,1.9,1.1,1.9,1.9c0,1.1-1.1,1.9-3.7,1.9c-12.9,0-27.9-0.8-28.9-0.8
		c-0.3,0-16.1,0.8-23.3,0.8c-2.4,0-3.7-0.5-3.7-1.9c0-0.8,0.5-1.9,1.9-1.9c2.1,0,5.1-0.5,7.2-1.1c4.6-1.1,5.1-5.3,6.2-12
		c1.3-9.4,1.3-27.3,1.3-49.3V228c0-35.4,0-41.8-0.5-49c-0.5-7.8-1.9-11.5-9.6-12.6c-1.9-0.3-5.9-0.5-8-0.5c-0.8,0-1.9-1.1-1.9-1.9
		c0-1.3,1.1-1.9,3.8-1.9c10.7,0,26.5,0.5,27.9,0.5c2.4,0,22.2-0.5,29.5-0.5c15,0,31.6,1.3,43.9,9.9c5.9,4.3,16.3,15.3,16.3,31.1
		c0,16.9-7,33.2-28.9,52c19.3,24.1,35.6,44.7,49.3,58.9c7.4,7.6,13.2,11.4,17.9,13.5c1.7-2.1,2.2-5.5,2.9-10
		c1.4-9.4,1.4-27.3,1.4-49.3V228c0-35.4,0-41.8-0.6-49c-0.5-7.8-1.9-11.5-9.7-12.6c-1.9-0.3-5.9-0.5-8-0.5c-0.8,0-1.9-1.1-1.9-1.9
		c0-1.3,1.1-1.9,3.7-1.9c10.7,0,26.5,0.5,27.9,0.5C498.9,162.6,518.7,162.1,525.9,162.1"/>
	<path class="st0" d="M942.8,332.6c-2.3,0-5.7-0.2-9.1-1.4c-4.8-1.4-11.3-5-19.5-25.2c-13.8-34.4-49.4-128-52.8-136.6
		c-2.7-7-3.6-8.2-5-8.2c-1.4,0-2.3,1.4-5,8.8l-51.4,140.7c-4.1,11.3-8.6,19.9-19,21.3c-1.8,0.2-5,0.5-6.6,0.5c-1.1,0-2,0.5-2,1.4
		c0,1.4,1.4,1.8,4.3,1.8c10.6,0,23.1-0.7,25.6-0.7c2.5,0,12.2,0.7,17.7,0.7c2,0,3.4-0.4,3.4-1.8c0-0.9-0.7-1.4-2.3-1.4h-2.3
		c-3.8,0-8.6-2-8.6-6.6c0-4.1,1.1-9.5,3.2-15.2l13.6-40.1c0.5-1.1,1.1-1.8,2.3-1.8h49.7c1.1,0,1.6,0.5,2,1.4l21.5,55.9
		c1.3,3.6,0,5.7-1.4,6.1c-0.9,0.2-1.6,0.7-1.6,1.6c0,1.4,2.5,1.4,6.8,1.6c15.6,0.5,30.7,0.3,34.1,0.3c2.5,0,4.5-0.4,4.5-1.8
		C945.1,332.8,944.2,332.6,942.8,332.6 M876.1,260.8h-44.3c-0.7,0-1.2-0.5-0.7-1.6l19.9-61.2c1.1-3.4,2.3-3.4,3.4,0l22.5,61.2
		C877.2,260.1,877.2,260.8,876.1,260.8"/>
	<path class="st0" d="M704.8,156c-65.1,0-93.5,52.2-93.5,88.9c0,41,27.6,89.5,92.2,89.5c56.8,0,94.6-42.1,94.6-93
		C798.1,188.4,757.9,156,704.8,156 M710.2,325c-42.6,0-74.5-33.2-74.5-86.2c0-49.6,28.4-74.2,67.8-74.2c37.2,0,70.4,28.7,70.4,83.3
		C773.9,313.8,731.3,325,710.2,325"/>
</g>
</svg>
