<?xml version="1.0" encoding="utf-8"?>
<!-- Generator: Adobe Illustrator 21.0.0, SVG Export Plug-In . SVG Version: 6.00 Build 0)  -->
<svg version="1.1" id="Contraste" xmlns="http://www.w3.org/2000/svg" xmlns:xlink="http://www.w3.org/1999/xlink" x="0px" y="0px"
	 viewBox="0 0 818 374" style="enable-background:new 0 0 818 374;" xml:space="preserve">
<style type="text/css">
	.st0{display:none;}
	.st1{display:inline;fill:#A93439;}
	.st2{fill:#CAA977;}
	.st3{fill:#A93439;}
</style>
<g id="Camada_8" class="st0">
	<rect x="-102.7" y="-199" class="st1" width="1024" height="768"/>
</g>
<g id="Camada_10">
</g>
<g id="Camada_9">
</g>
<g id="Layer_1_cópia_cópia">
	<g>
		<g>
			<path class="st2" d="M0.3,137.3L0,334.5C0,360.3,16.2,374,36.8,374h743.9c20.6,0,37.3-13.8,37.3-39.6V136.5
				c-71.8-56.4-227.7-95.6-408.7-95.6c-180.9,0-337.2,39.1-409,95.6"/>
			<path class="st2" d="M780.7,0H36.8C16.2,0,0,21.5,0,47.3l0.3,95.5C72.1,76.3,228.1,51.7,409,51.7s337.2,24.7,409,91.1V47
				C818,21.2,801.3,0,780.7,0"/>
		</g>
		<g>
			<path class="st3" d="M13.5,119.6v153c0,19.9,15.7,30.5,35.6,30.5h719.4c19.9,0,36.1-10.7,36.1-30.6v-153
				C735.1,76,584.3,45.7,409.3,45.7S82.9,76,13.5,119.6"/>
			<path class="st3" d="M768.5,14.1H48.8c-19.9,0-35.6,16.6-35.6,36.6l0.3,65.4c69.5-51.4,220.6-62,395.5-62s326.1,10.6,395.5,62
				V50.5C804.6,30.5,788.4,14.1,768.5,14.1"/>
		</g>
		<path class="st2" d="M13.5,119.6C82.9,76,234.3,45.7,409.3,45.7s325.8,30.2,395.3,73.8V116c-69.5-51.4-220.3-87-395.3-87
			S82.9,64.6,13.5,116"/>
		<path class="st2" d="M13.5,116"/>
		<path class="st3" d="M71.2,333.2c0-7.7,0-9.1-0.1-10.7c-0.1-1.7-0.5-2.5-2.2-2.8c-0.4-0.1-1.3-0.1-1.7-0.1c-0.2,0-0.4-0.1-0.4-0.3
			c0-0.3,0.3-0.4,0.8-0.4c1.2,0,2.6,0,3.7,0l2.1,0.1c0.4,0,10.5,0,11.7,0c1,0,1.8-0.2,2.2-0.2c0.3,0,0.5-0.3,0.7-0.3
			s0.2,0.3,0.2,0.5c0,0.3-0.3,0.9-0.4,2.3c0,0.5-0.2,2.7-0.3,3.3c-0.1,0.2-0.2,0.5-0.4,0.5c-0.3,0-0.4-0.2-0.4-0.6
			c0-0.3-0.1-1.2-0.3-1.8c-0.4-0.8-0.9-1.4-3.6-1.7c-0.9-0.1-6.4-0.2-7-0.2c-0.2,0-0.3,0.2-0.3,0.5V335c0,0.3,0,0.5,0.3,0.5
			c0.7,0,7,0,8.1-0.1c1.2-0.1,1.9-0.2,2.4-0.7c0.4-0.4,0.6-0.6,0.8-0.6s0.3,0.1,0.3,0.4c0,0.3-0.3,1.1-0.4,2.8
			c-0.1,1-0.2,2.8-0.2,3.2s0,0.9-0.4,0.9c-0.3,0-0.4-0.2-0.4-0.4c0-0.5,0-1-0.2-1.6c-0.2-0.7-0.7-1.5-2.7-1.7
			c-1.4-0.1-6.5-0.2-7.3-0.2c-0.3,0-0.4,0.2-0.4,0.3v4.4c0,1.7-0.1,7.4,0,8.5c0.2,3.4,0.9,4.1,5.9,4.1c1.3,0,3.6,0,4.9-0.5
			c1.3-0.5,1.9-1.5,2.3-3.6c0.1-0.5,0.2-0.7,0.5-0.7s0.3,0.4,0.3,0.7c0,0.4-0.4,3.8-0.7,4.8c-0.4,1.3-0.8,1.3-2.8,1.3
			c-3.8,0-6.7-0.1-8.6-0.2c-2-0.1-3.2-0.2-4-0.2c-0.1,0-1,0-2.1,0.1c-1,0-2.2,0.1-3,0.1c-0.6,0-0.8-0.1-0.8-0.4
			c0-0.2,0.1-0.3,0.4-0.3c0.5,0,1.1-0.1,1.5-0.2c1-0.2,1.3-1.3,1.5-2.7c0.3-2.1,0.3-6,0.3-10.7v-9.1H71.2z"/>
		<path class="st3" d="M172.4,333c0-7.7,0-9.1-0.1-10.7c-0.1-1.7-0.5-2.5-2.2-2.8c-0.4-0.1-1.3-0.1-1.7-0.1c-0.2,0-0.4-0.1-0.4-0.3
			c0-0.3,0.3-0.7,0.8-0.7c2.3,0,5.4,0.3,5.8,0.3c1.1,0,4,0.1,6.4,0.1c6.4,0,8.7,2.1,9.5,2.8c1.1,1,2.5,3.3,2.5,5.9
			c0,7-5.3,11.8-12.6,11.8c-0.3,0-0.8,0-1.1-0.1c-0.3,0-0.6-0.1-0.6-0.3c0-0.4,0.3-0.4,1.4-0.4c5,0,8.9-3.5,8.9-8.1
			c0-1.6-0.1-5-2.9-7.6c-2.7-2.7-5.8-2.5-7-2.5c-0.9,0-1.7,0.1-2.2,0.3c-0.3,0.1-0.4,0.4-0.4,0.9v20.3c0,4.8,0,8.7,0.3,10.7
			c0.1,1.4,0.5,2.5,2,2.7c0.7,0.1,1.8,0.2,2.3,0.2c0.3,0,0.4,0.1,0.4,0.3s-0.3,0.7-0.8,0.7c-2.8,0-6.1-0.2-6.3-0.2
			c-0.2,0-3.3,0.2-4.9,0.2c-0.6,0-0.8-0.4-0.8-0.7c0-0.1,0.1-0.3,0.4-0.3c0.5,0,1.1-0.1,1.5-0.2c1-0.2,1.3-1.3,1.5-2.7
			c0.3-2.1,0.3-6,0.3-10.7L172.4,333L172.4,333z"/>
		<path class="st3" d="M266.8,333.2c0-7.7,0-9.1-0.1-10.7c-0.1-1.7-0.5-2.5-2.2-2.8c-0.4-0.1-1.3-0.1-1.7-0.1
			c-0.2,0-0.4-0.1-0.4-0.3c0-0.3,0.3-0.4,0.8-0.4c1.2,0,2.6,0,3.7,0.1l2.1,0.1c0.4,0,10.5,0,11.7-0.1c1,0,1.8-0.2,2.2-0.2
			c0.3-0.1,0.5-0.3,0.7-0.3s0.2,0.3,0.2,0.5c0,0.3-0.3,0.9-0.4,2.3c-0.1,0.5-0.2,2.7-0.3,3.3c-0.1,0.2-0.2,0.5-0.4,0.5
			c-0.3,0-0.4-0.3-0.4-0.6s-0.1-1.2-0.3-1.8c-0.4-0.8-0.9-1.4-3.6-1.7c-0.9-0.1-6.4-0.2-7-0.2c-0.2,0-0.3,0.2-0.3,0.5V335
			c0,0.3,0.1,0.5,0.3,0.5c0.7,0,7,0,8.1-0.1c1.2-0.1,2-0.2,2.4-0.7c0.4-0.4,0.6-0.6,0.8-0.6s0.3,0.1,0.3,0.4c0,0.3-0.3,1.1-0.4,2.8
			c-0.1,1-0.2,2.8-0.2,3.2s0,0.9-0.4,0.9c-0.3,0-0.4-0.2-0.4-0.4c0-0.5,0-1-0.2-1.6c-0.2-0.7-0.7-1.5-2.7-1.7
			c-1.4-0.2-6.5-0.3-7.3-0.3c-0.3,0-0.4,0.1-0.4,0.3v4.3c0,1.7-0.1,7.4,0,8.5c0.2,3.4,0.9,4.1,5.9,4.1c1.3,0,3.6,0,4.9-0.5
			s1.9-1.5,2.3-3.6c0.1-0.5,0.2-0.7,0.5-0.7s0.3,0.4,0.3,0.7c0,0.4-0.4,3.8-0.7,4.8c-0.3,1.3-0.8,1.3-2.8,1.3
			c-3.8,0-6.6-0.1-8.6-0.1c-2-0.1-3.2-0.2-4-0.2c-0.1,0-1,0-2,0s-2.2,0.2-3,0.2c-0.6,0-0.8-0.2-0.8-0.5c0-0.1,0.1-0.3,0.4-0.3
			c0.5,0,1.1-0.1,1.5-0.2c1-0.2,1.3-1.3,1.5-2.7c0.3-2.1,0.3-6,0.3-10.7L266.8,333.2L266.8,333.2z"/>
		<path class="st3" d="M303.8,333.2c0-7.7,0-9.1-0.1-10.7c-0.1-1.7-0.5-2.5-2.2-2.8c-0.4-0.1-1.3-0.1-1.7-0.1
			c-0.2,0-0.4-0.1-0.4-0.3c0-0.3,0.3-0.4,0.8-0.4c1.2,0,2.6,0,3.7,0.1l2.1,0.1c0.4,0,10.5,0,11.7-0.1c1,0,1.8-0.2,2.2-0.2
			c0.3-0.1,0.5-0.3,0.7-0.3s0.2,0.3,0.2,0.5c0,0.3-0.3,0.9-0.4,2.3c0,0.5-0.2,2.7-0.3,3.3c-0.1,0.2-0.2,0.5-0.4,0.5
			c-0.3,0-0.4-0.3-0.4-0.6s0-1.2-0.3-1.8c-0.4-0.8-0.9-1.4-3.6-1.7c-0.9-0.1-6.4-0.2-7-0.2c-0.2,0-0.3,0.2-0.3,0.5V335
			c0,0.3,0.1,0.5,0.3,0.5c0.7,0,7,0,8.1-0.1c1.2-0.1,1.9-0.2,2.4-0.7c0.4-0.4,0.6-0.6,0.8-0.6s0.3,0.1,0.3,0.4
			c0,0.3-0.3,1.1-0.4,2.8c-0.1,1-0.2,2.8-0.2,3.2s0,0.9-0.4,0.9c-0.3,0-0.4-0.2-0.4-0.4c0-0.5,0-1-0.2-1.6c-0.2-0.7-0.7-1.5-2.7-1.7
			c-1.4-0.2-6.4-0.3-7.3-0.3c-0.3,0-0.4,0.1-0.4,0.3v4.3c0,1.7-0.1,7.4,0,8.5c0.2,3.4,0.9,4.1,5.9,4.1c1.3,0,3.6,0,4.9-0.5
			s1.9-1.5,2.3-3.6c0.1-0.5,0.2-0.7,0.5-0.7s0.3,0.4,0.3,0.7c0,0.4-0.4,3.8-0.7,4.8c-0.4,1.3-0.8,1.3-2.8,1.3
			c-3.8,0-6.6-0.1-8.6-0.1c-2-0.1-3.2-0.2-4-0.2c-0.1,0-1,0-2,0s-2.2,0.2-3,0.2c-0.6,0-0.8-0.2-0.8-0.5c0-0.1,0.1-0.3,0.4-0.3
			c0.5,0,1.1-0.1,1.5-0.2c1-0.2,1.3-1.3,1.5-2.7c0.3-2.1,0.3-6,0.3-10.7L303.8,333.2L303.8,333.2z"/>
		<path class="st3" d="M343.5,349.5c0.1,4.1,0.6,5.3,2,5.7c1,0.2,2.1,0.3,2.6,0.3c0.3,0,0.4,0.1,0.4,0.3c0,0.3-0.3,0.5-0.9,0.5
			c-2.9,0-5-0.2-5.4-0.2c-0.5,0-2.6,0.2-4.9,0.2c-0.5,0-0.8-0.1-0.8-0.5c0-0.2,0.2-0.3,0.4-0.3c0.4,0,1.3,0,2.1-0.3
			c1.3-0.4,1.5-1.8,1.5-6.3v-28.4c0-1.9,0.2-2.3,0.6-2.3c0.4,0,1.3,0.9,1.8,1.4c0.8,0.8,8.4,8.8,16.3,17
			c5.1,5.3,10.6,11.3,12.3,12.9l-0.6-25.1c0-3.2-0.4-4.3-2-4.7c-0.9-0.2-2.1-0.3-2.5-0.3c-0.4,0-0.4-0.1-0.4-0.3
			c0-0.3,0.4-0.3,1-0.3c2.3,0,4.8,0.1,5.3,0.1c0.6,0,2.3-0.1,4.3-0.1c0.6,0,0.9,0,0.9,0.3c0,0.2-0.2,0.3-0.6,0.3
			c-0.3,0-0.6,0-1.2,0.2c-1.7,0.3-1.9,1.4-1.9,4.4l-0.1,29c0,3.3-0.1,3.3-0.5,3.3c-0.4,0-1-0.3-3.7-2.9c-0.6-0.5-7.9-7.8-13.3-13.4
			c-5.9-6.2-11.7-12.4-13.4-14.2L343.5,349.5z"/>
		<path class="st3" d="M396.3,332.8c0-7.7,0-9.1-0.1-10.7c-0.1-1.7-0.5-2.5-2.2-2.8c-0.4-0.1-1.3-0.2-1.7-0.2
			c-0.2,0-0.4-0.1-0.4-0.3c0-0.3,0.3-0.4,0.8-0.4c2.3,0,5.5,0.1,5.8,0.1c0.6,0,3.8-0.1,6.9-0.1c5.1,0,14.4-0.4,20.5,5.6
			c2.5,2.6,5,6.7,5,12.6c0,6.2-2.7,11-5.5,14c-2.2,2.2-6.8,5.7-15.5,5.7c-2.2,0-4.9-0.2-7.1-0.3c-2.3-0.2-4-0.1-4.2-0.1
			c-0.1,0-1.1,0-2.1,0.1c-1,0-2.1,0.4-2.9,0.4c-0.6,0-0.8-0.6-0.8-0.9c0-0.2,0.1-0.3,0.4-0.3c0.5,0,1.1-0.1,1.5-0.2
			c1-0.2,1.3-1.3,1.5-2.7c0.3-2.1,0.3-6,0.3-10.7v-8.8H396.3z M400.6,338.2c0,5.2,0.1,9.8,0.1,10.7c0.1,1.2,0.2,3.2,0.6,3.8
			c0.7,0.9,2.7,2,8.7,2c4.8,0,9.2-1.7,12.2-4.6c2.7-2.5,4.1-7.3,4.1-11.8c0-6.3-2.8-10.3-4.9-12.5c-4.8-4.9-10.6-5.6-16.7-5.6
			c-1,0-2.9,0.1-3.3,0.3c-0.5,0.2-0.6,0.4-0.6,1c-0.1,1.7-0.1,6.7-0.1,10.5L400.6,338.2L400.6,338.2z"/>
		<path class="st3" d="M453.3,341.8c0,4.8,0,8.7,0.3,10.7c0.1,1.4,0.5,2.5,2,2.7c0.7,0.1,1.8,0.2,2.3,0.2c0.3,0,0.4,0.1,0.4,0.3
			s-0.3,0.7-0.8,0.7c-2.8,0-6.1-0.2-6.4-0.2c-0.3,0-3.4,0.2-4.9,0.2c-0.6,0-0.8-0.4-0.8-0.7c0-0.2,0.1-0.3,0.4-0.3
			c0.5,0,1.1-0.1,1.5-0.2c1-0.2,1.3-1.3,1.5-2.7c0.2-2.1,0.2-6,0.2-10.7V333c0-7.7,0-9.1-0.1-10.7c-0.1-1.7-0.6-2.5-1.7-2.8
			c-0.6-0.2-1.2-0.2-1.6-0.2c-0.2,0-0.4-0.1-0.4-0.3c0-0.3,0.3-0.7,0.8-0.7c1.7,0,5,0.3,5.3,0.3s3.3-0.3,4.9-0.3
			c0.6,0,0.8,0.4,0.8,0.7c0,0.2-0.2,0.3-0.4,0.3c-0.4,0-0.7,0.1-1.3,0.2c-1.4,0.2-1.8,1.1-1.9,2.8c-0.1,1.6-0.1,3-0.1,10.7V341.8z"
			/>
		<path class="st3" d="M541.2,333.2c0-7.7,0-9.1-0.1-10.7c-0.1-1.7-0.5-2.5-2.2-2.8c-0.4-0.1-1.3-0.1-1.7-0.1
			c-0.2,0-0.4-0.1-0.4-0.3c0-0.3,0.3-0.4,0.8-0.4c1.2,0,2.6,0,3.7,0.1l2.1,0.1c0.4,0,10.5,0,11.7-0.1c1,0,1.8-0.2,2.2-0.2
			c0.3-0.1,0.5-0.3,0.7-0.3c0.1,0,0.2,0.3,0.2,0.5c0,0.3-0.3,0.9-0.4,2.3c-0.1,0.5-0.1,2.7-0.3,3.3c0,0.2-0.1,0.5-0.4,0.5
			c-0.3,0-0.4-0.3-0.4-0.6s-0.1-1.2-0.3-1.8c-0.4-0.8-0.9-1.4-3.6-1.7c-0.9-0.1-6.5-0.2-7-0.2c-0.2,0-0.3,0.2-0.3,0.5V335
			c0,0.3,0,0.5,0.3,0.5c0.7,0,7,0,8.1-0.1c1.2-0.1,2-0.2,2.4-0.7c0.4-0.4,0.6-0.6,0.8-0.6c0.1,0,0.3,0.1,0.3,0.4
			c0,0.3-0.3,1.1-0.4,2.8c-0.1,1-0.2,2.8-0.2,3.2s0,0.9-0.4,0.9c-0.2,0-0.4-0.2-0.4-0.4c0-0.5,0-1-0.2-1.6c-0.2-0.7-0.7-1.5-2.7-1.7
			c-1.4-0.2-6.4-0.3-7.3-0.3c-0.3,0-0.4,0.1-0.4,0.3v4.3c0,1.7-0.1,7.4,0,8.5c0.2,3.4,0.9,4.1,5.9,4.1c1.3,0,3.6,0,4.9-0.5
			c1.3-0.5,1.9-1.5,2.3-3.6c0.1-0.5,0.2-0.7,0.5-0.7s0.3,0.4,0.3,0.7c0,0.4-0.4,3.8-0.7,4.8c-0.4,1.3-0.8,1.3-2.8,1.3
			c-3.8,0-6.7-0.1-8.6-0.1c-2-0.1-3.2-0.2-4-0.2c-0.1,0-1,0-2,0s-2.2,0.2-3,0.2c-0.6,0-0.8-0.2-0.8-0.5c0-0.1,0.1-0.3,0.4-0.3
			c0.5,0,1.1-0.1,1.5-0.2c1-0.2,1.3-1.3,1.5-2.7c0.3-2.1,0.3-6,0.3-10.7v-8.9H541.2z"/>
		<path class="st3" d="M580.9,349.5c0.1,4.1,0.6,5.3,2,5.7c1,0.2,2.1,0.3,2.5,0.3c0.3,0,0.4,0.1,0.4,0.3c0,0.3-0.3,0.5-0.9,0.5
			c-2.9,0-5-0.2-5.4-0.2c-0.5,0-2.6,0.2-4.9,0.2c-0.5,0-0.8-0.1-0.8-0.5c0-0.2,0.2-0.3,0.4-0.3c0.4,0,1.3,0,2.1-0.3
			c1.3-0.4,1.5-1.8,1.5-6.3l0.1-28.4c0-1.9,0.1-2.3,0.6-2.3c0.4,0,1.3,0.9,1.8,1.4c0.8,0.8,8.4,8.8,16.3,17
			c5.1,5.3,10.7,11.3,12.3,12.9l-0.6-25.1c0-3.2-0.4-4.3-2-4.7c-0.9-0.2-2.1-0.3-2.5-0.3s-0.4-0.1-0.4-0.3c0-0.3,0.4-0.3,1-0.3
			c2.3,0,4.7,0.1,5.3,0.1s2.2-0.1,4.3-0.1c0.6,0,0.9,0,0.9,0.3c0,0.2-0.2,0.3-0.6,0.3c-0.3,0-0.6,0-1.2,0.2
			c-1.7,0.3-1.9,1.4-1.9,4.4l-0.1,29c0,3.3-0.1,3.3-0.5,3.3s-1-0.3-3.7-2.9c-0.6-0.5-7.9-7.8-13.4-13.4
			c-5.9-6.2-11.7-12.4-13.4-14.2L580.9,349.5z"/>
		<path class="st3" d="M697.2,318.4c11.5,0,20.1,6.7,20.1,18.2c0,11.1-8.1,19.8-20.4,19.8c-14,0-19.9-10.1-19.9-19
			C677,329.3,683.1,318.4,697.2,318.4 M698.3,354.9c4.6,0,14.1-2.6,14.1-17c0-11.9-7.5-18.3-15.5-18.3c-8.5,0-14.9,5.4-14.9,16.3
			C681.9,347.5,689.1,354.9,698.3,354.9"/>
		<path class="st3" d="M732.4,355.5c-0.7-0.4-0.8-0.5-0.8-1.9c0-2.5,0.2-4.5,0.3-5.2c0-0.5,0.1-0.8,0.4-0.8c0.3,0,0.4,0.1,0.4,0.5
			s0,1.1,0.2,1.8c0.8,3.7,4.1,5.1,7.6,5.1c4.9,0,7.3-3.4,7.3-6.6c0-3.4-1.5-5.4-5.9-8.9l-2.3-1.8c-5.4-4.3-6.6-7.4-6.6-10.7
			c0-5.3,4.1-8.6,10.6-8.6c2,0,3.5,0.1,4.8,0.4c1,0.2,1.3,0.2,1.8,0.2c0.4,0,0.5,0.4,0.5,0.7c0,0.2-0.2,1.4-0.2,4.7
			c0,0.8-0.1,1.1-0.4,1.1c-0.3,0-0.4-0.2-0.4-0.6c-0.1-0.6-0.4-1.9-0.7-2.5c-0.3-0.5-1.7-2.6-6.4-2.6c-3.5,0-6.3,2.1-6.3,5.7
			c0,2.8,1.3,4.6,6.2,8.3l1.4,1.1c6,4.6,7.5,7.7,7.5,11.6c0,2-0.8,5.8-4.4,8.2c-2.2,1.5-5,1.6-7.7,1.6
			C736.9,356.4,734.5,356.5,732.4,355.5"/>
		<path class="st3" d="M247.5,355.6c-0.3,0-0.9,0-1.9-0.2c-1.3-0.2-3.1-0.6-6-3.5c-3.1-3.1-6.8-7.7-11.2-13c5-4.1,6.6-7.7,6.6-11.5
			c0-3.5-2.4-5.9-3.7-6.8c-2.8-1.9-6.6-2.2-10-2.2c-1.6,0-6.2,0.1-6.7,0.1c-0.3,0-3.9-0.2-6.3-0.2c-0.6,0-0.9,0.2-0.9,0.5
			c0,0.2,0.2,0.4,0.4,0.4c0.5,0,1.4,0.1,1.8,0.1c1.8,0.2,2.1,1.1,2.2,2.8c0.1,1.6,0.1,3,0.1,10.8v8.9c0,4.8,0,8.8-0.3,10.8
			c-0.2,1.5-0.4,2.4-1.4,2.7c-0.5,0.1-1.2,0.2-1.6,0.2c-0.3,0-0.4,0.2-0.4,0.4c0,0.3,0.3,0.4,0.9,0.4c1.6,0,5.2-0.2,5.3-0.2
			c0.2,0,3.7,0.2,6.6,0.2c0.6,0,0.9-0.2,0.9-0.4s-0.1-0.4-0.4-0.4c-0.5,0-1.6-0.1-2.4-0.2c-1.6-0.2-2-1.2-2.1-2.7
			c-0.2-1.6-0.2-31.6-0.2-31.6c0-0.3,0.2-0.5,0.4-0.6c0.5-0.1,2.3-0.3,3.8-0.3c5.7,0,9.3,3.6,9.3,9.9c0,3.8-1.4,6.5-3.2,7.7
			c-1,0.6-3.1,0.8-4.1,0.9c0.1,0.6,5.3,6.6,7.5,9.4c3.1,3.8,5,6.2,7.3,7.4c1.3,0.7,2.7,1,5.7,1h3.4c1,0,1.3-0.1,1.3-0.4
			C248,355.8,247.9,355.6,247.5,355.6"/>
		<path class="st3" d="M521.9,355.7c-0.4,0-0.8,0-1.5-0.1c-1.2-0.2-2.2-1.3-2.7-2.5c0,0-0.4-1.1-0.6-2.9l-3.4-30.4
			c-0.1-0.9-0.3-1.3-0.6-1.3c-0.4,0-0.6,0.4-0.8,0.8l-15,31.1l-15.7-31.1c-0.3-0.5-0.5-0.7-0.8-0.7s-0.5,0.4-0.5,0.9l-3.7,32.3
			c-0.2,1.9-0.4,3.8-2,4.1c-0.8,0.2-1.1,0.2-1.5,0.2c-0.3,0-0.5,0.1-0.5,0.2c0,0.3,0.3,0.4,0.9,0.4c1.4,0,3.8-0.1,4.3-0.1
			c0.4,0,2.9,0.1,4.8,0.1c0.6,0,0.9,0,0.9-0.4c0-0.1-0.2-0.2-0.4-0.2c-0.3,0-1.1,0-1.9-0.2c-0.8-0.2-1.3-0.8-1.3-1.5
			c0-0.8,0-1.7,0.1-2.5l2-23h0.2c0.6,1.3,6.3,13.2,6.8,14.1c0.3,0.5,4.7,9,6,11.5c1,1.8,1.2,2.3,1.6,2.3c0.5,0,0.6-0.5,1.7-2.7
			l12.5-25.7h0.2l2.4,25c0,0.3,0.1,0.7,0.1,1c0,0.7-0.7,1.3-1.5,1.5c-0.9,0.2-1.6,0.2-1.9,0.2c-0.2,0-0.4,0.1-0.4,0.2
			c0,0.4,0.3,0.4,0.9,0.4c1.9,0,5.6-0.1,6-0.1c0.5,0,3.9,0.1,5.3,0.1c0.5,0,0.9-0.1,0.9-0.5C522.5,355.8,522.2,355.7,521.9,355.7"/>
		<path class="st3" d="M662.5,318.3c-0.2,0-0.7,0.1-1.5,0.2c-0.8,0.1-2.1,0.2-3.8,0.2h-22.3c-1.8,0-3-0.1-3.8-0.2
			c-0.8-0.1-1.3-0.2-1.5-0.2s-0.2,0.3-0.2,0.6c0,1.5,0.2,5.1,0.2,5.7c0,0.4,0.2,0.6,0.5,0.6c0.2,0,0.4-0.2,0.4-0.9l0.1-0.5
			c0.2-1.5,1.3-2.7,6.4-2.8l6.7-0.1v21c0,4.8,0,8.8-0.2,10.8c-0.2,1.5-0.4,2.4-2.1,2.6c-0.7,0.1-1.9,0.2-2.4,0.2
			c-0.4,0-0.4,0.2-0.4,0.4s0.3,0.3,0.9,0.3c2.4,0,5.2,0,6.2-0.1l0,0c0.3,0,0.4,0,0.6,0c0.1,0,0.3,0,0.6,0l0,0c1,0,3.8,0.1,6.2,0.1
			c0.6,0,0.9-0.1,0.9-0.3s-0.1-0.4-0.4-0.4c-0.5,0-1.7-0.1-2.4-0.2c-1.6-0.2-1.9-1.2-2.1-2.6c-0.2-2.1-0.2-6-0.2-10.8v-21l6.7,0.1
			c5.1,0.1,6.2,1.2,6.4,2.8l0.1,0.5c0.1,0.7,0.2,0.9,0.4,0.9s0.5-0.2,0.5-0.6c0-0.6,0.2-4.2,0.2-5.7
			C662.7,318.6,662.7,318.3,662.5,318.3"/>
		<path class="st3" d="M153.1,355.7c-0.4,0-0.8,0-1.5-0.1c-1.2-0.2-2.2-1.3-2.6-2.5c0,0-0.4-1.1-0.6-2.9l-3.4-30.4
			c-0.1-0.9-0.3-1.3-0.6-1.3c-0.4,0-0.6,0.4-0.8,0.8l-15,31.1l-15.7-31.1c-0.3-0.5-0.5-0.7-0.8-0.7s-0.5,0.4-0.6,0.9l-3.7,32.3
			c-0.2,1.9-0.4,3.8-2.1,4.1c-0.8,0.2-1.1,0.2-1.5,0.2c-0.3,0-0.5,0.1-0.5,0.2c0,0.3,0.4,0.4,0.9,0.4c1.4,0,3.8-0.1,4.3-0.1
			c0.4,0,2.9,0.1,4.8,0.1c0.6,0,0.9,0,0.9-0.4c0-0.1-0.2-0.2-0.4-0.2c-0.3,0-1.1,0-1.9-0.2c-0.8-0.2-1.3-0.8-1.3-1.5
			c0-0.8,0-1.7,0-2.5l2.1-23h0.2c0.6,1.3,6.3,13.2,6.8,14.1c0.3,0.5,4.7,9,6,11.5c1,1.8,1.2,2.3,1.6,2.3c0.5,0,0.6-0.5,1.7-2.7
			l12.5-25.7h0.2l2.4,25c0,0.3,0.1,0.7,0.1,1c0,0.7-0.7,1.3-1.5,1.5c-0.9,0.2-1.6,0.2-1.9,0.2c-0.2,0-0.4,0.1-0.4,0.2
			c0,0.4,0.3,0.4,0.9,0.4c1.9,0,5.6-0.1,6-0.1c0.5,0,3.9,0.1,5.3,0.1c0.5,0,0.9-0.1,0.9-0.5C153.6,355.8,153.3,355.7,153.1,355.7"/>
		<path class="st2" d="M153,159.3c0,1.6-0.9,2.5-1.8,2.5c-0.9,0-1.4-0.7-1.6-3.4l-0.2-2c-0.7-5.9-5-10.2-23.9-10.6l-24.9-0.5V226
			c0,18.5,0,33.7,0.9,41.6c0.7,5.6,1.6,9.3,7.7,10.2c2.7,0.4,5.6,1.1,7.4,1.1c1.3,0,1.6,0.9,1.6,1.6c0,0.9-0.9,1.6-3.2,1.6
			c-9,0-17.6-0.6-21.5-0.8v0.1c-0.9,0-1.6-0.1-2.1-0.1s-1.2,0.1-2.1,0.1v-0.1c-3.9,0.2-10.5,0.8-19.5,0.8c-2.3,0-3.2-0.7-3.2-1.6
			c0-0.7,0.2-1.6,1.6-1.6c1.8,0,2.7-0.6,5.4-1.1c6.1-0.9,7-4.5,7.7-10.2c0.9-7.9,0.9-23.1,0.9-41.6v-80.7l-24.8,0.5
			c-19,0.4-23.3,4.7-24,10.6l-0.2,2c-0.2,2.7-0.7,3.4-1.6,3.4c-0.9,0-1.8-0.9-1.8-2.5c0-2.2-0.7-16-0.7-21.9c0-1.1,0-2.2,0.9-2.2
			s2.7,0.4,5.7,0.9c3.2,0.4,7.7,0.9,14.2,0.9h82.9c6.6,0,11.1-0.5,14.2-0.9c2.9-0.5,4.7-0.9,5.6-0.9s0.9,1.1,0.9,2.2
			C153.7,143.2,153,157,153,159.3"/>
		<path class="st2" d="M252.3,276.8c-1.3,4.9-3.4,4.9-11,4.9c-14.8,0-26.3-0.4-34.4-0.7c-8.3-0.5-13.5-0.5-16.4-0.5
			c-0.4,0-4.3,0-8.5,0.2c-3.8,0.2-8.3,0.5-11.5,0.5c-2,0-3.1-0.5-3.1-1.6c0-0.7,0.5-1.6,1.6-1.6c1.8,0,4.3-0.7,6.1-0.9
			c3.8-0.7,4.3-4.5,5.2-10.1c1.1-7.9,1.1-22.9,1.1-41.4V192c0-29.7,0-35.1-0.5-41.2c-0.4-6.5-1.6-9.7-8.1-10.6
			c-1.6-0.2-4.9-0.4-6.7-0.4c-0.7,0-1.6-0.9-1.6-1.6c0-1.1,0.9-1.6,3.1-1.6c9,0,21.8,0.5,22.9,0.5c1.4,0,42.7,0.2,47.2,0
			c3.8-0.2,7.4-0.9,9-1.1c0.9-0.2,1.8-0.9,2.7-0.9c0.7,0,0.9,0.9,0.9,1.8c0,1.3-1.1,3.6-1.6,9c-0.2,1.8-0.7,10.4-1.1,12.6
			c-0.2,0.9-0.9,2-1.8,2c-1.1,0-1.6-0.9-1.6-2.5c0-1.4-0.2-4.5-1.1-6.8c-1.3-3.1-3.4-4.5-14.2-5.8c-3.4-0.4-26.3-0.7-28.6-0.7
			c-0.9,0-1.1,0.7-1.1,2v52c0,1.4,0,2,1.1,2c2.5,0,28.6,0,33.1-0.5c4.7-0.4,7.7-0.7,9.7-2.7c1.3-1.3,2.2-2.5,2.9-2.5
			c0.7,0,1.1,0.4,1.1,1.6c0,1.1-1.1,4.3-1.6,10.6c-0.4,3.8-0.9,11-0.9,12.4c0,1.6-0.4,3.6-1.8,3.6c-0.9,0-1.3-0.7-1.3-1.8
			c0-1.8,0-3.8-0.9-6.3c-0.7-2.7-2.5-4.9-10.1-5.8c-5.4-0.7-26.5-0.9-29.9-0.9c-1.1,0-1.3,0.7-1.3,1.4v16c0,6.5-0.2,28.8,0,32.6
			c0.4,12.8,4,15.3,23.6,15.3c5.2,0,14.6,0,19.8-2c5.2-2.2,7.9-5.6,9-13.3c0.5-2.3,0.9-2.9,2-2.9s1.3,1.6,1.3,2.9
			C255,259.7,253.4,272.7,252.3,276.8"/>
		<path class="st2" d="M707.5,121.8c6.9-4.7,24.5-15.4,25.9-16.2c3.2-1.9,4.4-2.5,5.3-2.5c0.6,0,0.9,0.4,1.9,1.7
			c1.3,1.9,2.7,4.6,4.8,8.4c1,1.7,0,2.3-0.8,2.3c-0.6,0-2.5-0.4-5.7,0c-9.3,1-22.6,5.3-28.9,8c-1.3,0.6-2.5,1-2.9,1s-1-0.4-1-1.1
			C706.2,122.7,706.5,122.3,707.5,121.8"/>
		<path class="st2" d="M437.6,137.1c12.6,0,26.5,1.1,36.9,8.3c4.9,3.6,13.7,12.8,13.7,26.1c0,14.2-5.9,27.9-24.3,43.6
			c16.2,20.3,29.9,37.6,41.4,49.5c10.6,10.8,17.1,12.6,22,13.3c3.8,0.7,5.9,0.7,7,0.7s1.8,0.9,1.8,1.6c0,1.1-1.1,1.6-4.7,1.6H519
			c-11.3,0-16.2-1.1-21.1-3.8c-8.6-4.5-15.7-13.7-27-28.1c-8.3-10.4-27.3-33.5-27.8-35.7c3.7-0.2,11.6-1.1,15.2-3.4
			c6.8-4.5,11.9-14.6,11.9-29.2c0-23.8-13.1-37.6-34.2-37.6c-5.8,0-12.1,0.7-14.2,1.1c-0.9,0.5-1.6,1.1-1.6,2.2
			c0,0,0.2,114.1,0.9,120.3c0.7,5.6,1.8,9.2,7.9,10.1c2.7,0.5,7,0.9,8.8,0.9c1.4,0,1.6,0.9,1.6,1.6c0,0.9-0.9,1.6-3.1,1.6
			c-8,0-16.9-0.4-21.4-0.6c-0.7,0.4-1.9,0.6-4.1,0.6h-12.5c-1.1,0-2.1,0-3.1,0c-1.1,0-2,0-2.9,0c-0.8,0-1.5-0.1-2-0.3
			c-6-0.5-9.6-1.6-13.2-3.6c-8.5-4.5-15.8-13.7-27-28.1c-8.3-10.4-27.3-33.5-27.8-35.7c3.7-0.2,11.6-1.1,15.2-3.4
			c6.7-4.5,11.9-14.6,11.9-29.2c0-23.8-13-37.6-34.2-37.6c-5.8,0-12.1,0.7-14.2,1.1c-0.9,0.5-1.6,1.1-1.6,2.2
			c0,0,0.2,114.1,0.9,120.3c0.7,5.6,1.8,9.2,7.9,10.1c2.7,0.5,7,0.9,8.8,0.9c1.4,0,1.6,0.9,1.6,1.6c0,0.9-0.9,1.6-3.1,1.6
			c-10.8,0-23.4-0.7-24.3-0.7c-0.2,0-13.5,0.7-19.6,0.7c-2,0-3.1-0.4-3.1-1.6c0-0.7,0.4-1.6,1.6-1.6c1.8,0,4.3-0.4,6.1-0.9
			c3.8-0.9,4.3-4.5,5.2-10.1c1.1-7.9,1.1-23,1.1-41.4v-33.7c0-29.7,0-35.1-0.5-41.2c-0.4-6.5-1.6-9.7-8.1-10.6
			c-1.6-0.2-5-0.5-6.8-0.5c-0.7,0-1.6-0.9-1.6-1.6c0-1.1,0.9-1.6,3.1-1.6c9,0,22.3,0.4,23.4,0.4c2,0,18.7-0.4,24.7-0.4
			c12.6,0,26.5,1.1,36.9,8.3c4.9,3.6,13.7,12.8,13.7,26.1c0,14.2-5.8,27.9-24.3,43.6c16.2,20.3,29.9,37.6,41.4,49.5
			c6.3,6.4,11.1,9.6,15,11.3c1.4-1.7,1.8-4.6,2.4-8.4c1.1-7.9,1.1-23,1.1-41.4v-33.7c0-29.7,0-35.1-0.5-41.2
			c-0.4-6.5-1.6-9.7-8.1-10.6c-1.6-0.2-4.9-0.5-6.7-0.5c-0.7,0-1.6-0.9-1.6-1.6c0-1.1,0.9-1.6,3.1-1.6c9,0,22.3,0.4,23.4,0.4
			C414.8,137.6,431.5,137.1,437.6,137.1"/>
		<path class="st2" d="M787.6,280.2c-1.9,0-4.8-0.2-7.6-1.1c-4-1.1-9.5-4.2-16.4-21.1c-11.6-28.9-41.5-107.5-44.3-114.7
			c-2.3-5.9-3-6.8-4.2-6.8c-1.1,0-1.9,1.1-4.2,7.4L667.7,262c-3.4,9.5-7.2,16.7-16,17.9c-1.5,0.2-4.2,0.4-5.5,0.4
			c-1,0-1.7,0.4-1.7,1.1c0,1.1,1.1,1.5,3.6,1.5c8.9,0,19.4-0.6,21.5-0.6s10.3,0.6,14.8,0.6c1.7,0,2.9-0.4,2.9-1.5
			c0-0.8-0.6-1.1-1.9-1.1h-1.9c-3.2,0-7.2-1.7-7.2-5.5c0-3.4,1-8,2.7-12.7l11.4-33.7c0.4-0.9,0.9-1.5,1.9-1.5h41.8
			c0.9,0,1.3,0.4,1.7,1.1l18.1,47c1.1,3,0,4.8-1.2,5.1c-0.8,0.2-1.3,0.6-1.3,1.3c0,1.1,2.1,1.1,5.7,1.3c13.1,0.4,25.8,0.2,28.6,0.2
			c2.1,0,3.8-0.4,3.8-1.5C789.5,280.4,788.7,280.2,787.6,280.2 M731.6,219.9h-37.2c-0.6,0-1-0.4-0.6-1.3l16.7-51.4
			c0.9-2.8,1.9-2.8,2.9,0l18.9,51.4C732.5,219.4,732.5,219.9,731.6,219.9"/>
		<path class="st2" d="M587.8,131.9c-54.7,0-78.5,43.9-78.5,74.7c0,34.4,23.2,75.1,77.4,75.1c47.7,0,79.4-35.3,79.4-78
			C666,159.2,632.3,131.9,587.8,131.9 M592.2,273.9c-35.7,0-62.5-27.9-62.5-72.4c0-41.6,23.8-62.3,56.9-62.3
			c31.3,0,59.1,24.1,59.1,69.9C645.8,264.4,610,273.9,592.2,273.9"/>
	</g>
</g>
</svg>
