<?xml version="1.0" encoding="utf-8"?>
<!-- Generator: Adobe Illustrator 21.0.0, SVG Export Plug-In . SVG Version: 6.00 Build 0)  -->
<svg version="1.1" id="Camada_1" xmlns="http://www.w3.org/2000/svg" xmlns:xlink="http://www.w3.org/1999/xlink" x="0px" y="0px"
	 viewBox="0 0 512 512" style="enable-background:new 0 0 512 512;" xml:space="preserve">
<style type="text/css">
	.st0{fill:#43352F;}
</style>
<path class="st0" d="M256,72c101.7,0,184,82.3,184,184s-82.3,184-184,184S72,357.7,72,256S154.3,72,256,72 M256,8C119,8,8,119,8,256
	s111,248,248,248s248-111,248-248S393,8,256,8z M256,192c35.3,0,64,28.7,64,64s-28.7,64-64,64s-64-28.7-64-64S220.7,192,256,192
	 M256,128c-70.7,0-128,57.3-128,128s57.3,128,128,128s128-57.3,128-128S326.7,128,256,128z"/>
</svg>
