<?xml version="1.0" encoding="utf-8"?>
<!-- Generator: Adobe Illustrator 21.0.0, SVG Export Plug-In . SVG Version: 6.00 Build 0)  -->
<svg version="1.1" id="Camada_1" xmlns="http://www.w3.org/2000/svg" xmlns:xlink="http://www.w3.org/1999/xlink" x="0px" y="0px"
	 viewBox="0 0 512 445.5" style="enable-background:new 0 0 512 445.5;" xml:space="preserve">
<style type="text/css">
	.st0{fill:#B19367;}
</style>
<path class="st0" d="M184,96.5h290c8.3,0,15-6.8,15-15v-42c0-8.3-6.8-15-15-15H184c-8.3,0-15,6.8-15,15v42
	C169,89.8,175.8,96.5,184,96.5z M184,256.5h290c8.3,0,15-6.8,15-15v-42c0-8.3-6.8-15-15-15H184c-8.3,0-15,6.8-15,15v42
	C169,249.8,175.8,256.5,184,256.5z M184,416.5h290c8.3,0,15-6.8,15-15v-42c0-8.3-6.8-15-15-15H184c-8.3,0-15,6.8-15,15v42
	C169,409.8,175.8,416.5,184,416.5z M122.8,364.2l-45.2,45.2l-9.8,9.8c-2.9,2.9-8.1,2.9-11,0L27,389.5c-2.9-2.9-2.9-7.7,0-10.6
	l9.8-9.8c2.9-2.9,7.7-2.9,10.6,0l14.2,13.8l39.9-39.9c2.9-2.9,7.7-2.9,10.6,0l10.6,10.6C125.7,356.5,125.7,361.3,122.8,364.2
	L122.8,364.2z M122.8,206.1l-45.2,45.2l-9.8,9.8c-2.9,2.9-8.1,2.9-11,0L27,231.4c-2.9-2.9-2.9-7.7,0-10.6l9.8-9.8
	c2.9-2.9,7.7-2.9,10.6,0l14.2,13.8l39.9-39.9c2.9-2.9,7.7-2.9,10.6,0l10.6,10.6C125.7,198.4,125.7,203.1,122.8,206.1L122.8,206.1z
	 M122.8,47.9L77.6,93.1l-9.8,9.8c-2.9,2.9-8.1,2.9-11,0L27,73.2c-2.9-2.9-2.9-7.7,0-10.6l9.8-9.8c2.9-2.9,7.7-2.9,10.6,0l14.2,13.8
	l39.9-39.9c2.9-2.9,7.7-2.9,10.6,0l10.6,10.6C125.7,40.2,125.7,45,122.8,47.9L122.8,47.9z"/>
</svg>
