<?xml version="1.0" encoding="utf-8"?>
<!-- Generator: Adobe Illustrator 21.0.0, SVG Export Plug-In . SVG Version: 6.00 Build 0)  -->
<svg version="1.1" id="Camada_1" xmlns="http://www.w3.org/2000/svg" xmlns:xlink="http://www.w3.org/1999/xlink" x="0px" y="0px"
	 viewBox="0 0 576 512" style="enable-background:new 0 0 576 512;" xml:space="preserve">
<style type="text/css">
	.st0{fill:#43352F;}
</style>
<path class="st0" d="M569.4,231.6C513,135.9,407.8,72,288,72C168.1,72,63,136,6.6,231.6c-8.9,15-8.9,33.7,0,48.7
	C63,376.1,168.2,440,288,440c119.9,0,225-64,281.4-159.6C578.2,265.3,578.2,246.7,569.4,231.6L569.4,231.6z M288,392
	c-75.2,0-136-60.8-136-136s60.8-136,136-136s136,60.8,136,136S363.2,392,288,392z M392,256c0,57.4-46.6,104-104,104
	s-104-46.6-104-104c0-17.7,4.4-34.4,12.2-49l0,0c0,23.7,19.2,42.8,42.8,42.8s42.8-19.2,42.8-42.8c0-23.7-19.2-42.8-42.8-42.8l0,0
	c14.6-7.8,31.3-12.2,49-12.2C345.4,152,392,198.6,392,256z"/>
</svg>
