<?xml version="1.0" encoding="utf-8"?>
<!-- Generator: Adobe Illustrator 21.0.0, SVG Export Plug-In . SVG Version: 6.00 Build 0)  -->
<svg version="1.1" id="Camada_1" xmlns="http://www.w3.org/2000/svg" xmlns:xlink="http://www.w3.org/1999/xlink" x="0px" y="0px"
	 viewBox="0 0 1920 1080" style="enable-background:new 0 0 1920 1080;" xml:space="preserve">
<style type="text/css">
	.st0{fill:#484752;}
	.st1{fill:#597747;}
	.st2{fill:none;stroke:#8C4529;stroke-width:3;stroke-linecap:round;stroke-linejoin:round;stroke-miterlimit:10;}
	.st3{fill:#FFFFFF;stroke:#221F1F;stroke-width:3;stroke-miterlimit:10;}
	.st4{fill:none;stroke:#221F1F;stroke-miterlimit:10;}
	.st5{fill:none;stroke:#908F93;stroke-width:2;stroke-linecap:round;stroke-linejoin:round;stroke-miterlimit:10;}
	.st6{fill:#9494A0;stroke:#3F3F41;stroke-width:0.25;stroke-linecap:round;stroke-linejoin:round;stroke-miterlimit:10;}
	.st7{fill:#FFFFFF;}
	.st8{fill:#E3E4D4;}
	.st9{fill:#435738;stroke:#FFFAED;stroke-width:0.75;stroke-miterlimit:10;}
	.st10{fill:#435738;stroke:#FFFAED;stroke-width:0.5;stroke-miterlimit:10;}
	.st11{fill:none;stroke:#FFFAED;stroke-width:0.5;stroke-miterlimit:10;}
	.st12{fill:none;stroke:#FFFFFF;stroke-width:0.5;stroke-linecap:round;stroke-miterlimit:10;}
	.st13{fill:#CFD1D2;stroke:#3F3F41;stroke-width:0.5;stroke-miterlimit:10;}
	.st14{fill:#919396;stroke:#3F3F41;stroke-width:0.5;stroke-miterlimit:10;}
	.st15{fill:#FFFFFF;stroke:#3F3F41;stroke-width:0.5;stroke-miterlimit:10;}
	.st16{fill:#A73323;stroke:#3F3F41;stroke-width:0.75;stroke-miterlimit:10;}
	.st17{fill:none;stroke:#FFFFFF;stroke-width:0.75;stroke-linecap:round;stroke-miterlimit:10;}
	.st18{fill:#221F1F;}
	.st19{fill:#BB9870;stroke:#221F1F;stroke-width:0.5;stroke-miterlimit:10;}
	.st20{fill:none;stroke:#FFCC3C;stroke-width:0.25;stroke-miterlimit:10;}
	.st21{fill:none;stroke:#FFFFFF;stroke-width:0.75;stroke-miterlimit:10;}
	.st22{fill:#A5A7AA;stroke:#3F3F41;stroke-width:0.25;stroke-miterlimit:10;}
	.st23{fill:#FFFFFF;stroke:#3F3F41;stroke-width:0.25;stroke-miterlimit:10;}
	.st24{fill:#E6E9DD;stroke:#3F3F41;stroke-width:0.25;stroke-miterlimit:10;}
	.st25{fill:#808083;stroke:#3F3F41;stroke-width:0.25;stroke-miterlimit:10;}
	.st26{fill:#814C40;stroke:#221F1F;stroke-width:0.25;stroke-miterlimit:10;}
	.st27{fill:#BBBCBF;stroke:#221F1F;stroke-width:0.25;stroke-miterlimit:10;}
	.st28{fill:url(#SVGID_1_);}
	.st29{fill:url(#SVGID_2_);}
	.st30{fill:none;stroke:#000000;stroke-width:0.25;stroke-miterlimit:10;}
	.st31{fill:#8A8986;}
	.st32{fill:#A5A7AA;}
	.st33{fill:#CFD1D2;}
	.st34{fill:#C5C6C8;}
	.st35{fill:#A7A3A2;}
	.st36{fill:#B8B7B4;}
	.st37{fill:#4F4C4C;}
	.st38{font-family:'Helvetica';}
	.st39{font-size:10.2489px;}
	.st40{font-size:10.2498px;}
	.st41{font-size:9.8521px;}
	.st42{font-size:5.7438px;}
	.st43{font-size:10.2493px;}
	.st44{font-size:10.2494px;}
	.st45{font-size:10.2488px;}
	.st46{font-size:10.2499px;}
	.st47{fill:none;stroke:#221F1F;stroke-width:0.25;stroke-miterlimit:10;}
	.st48{font-size:9.8519px;}
	.st49{font-size:5.7441px;}
	.st50{font-size:5.7439px;}
	.st51{font-size:9.8522px;}
	.st52{font-size:5.7437px;}
	.st53{font-size:5.7435px;}
	.st54{font-size:9.8527px;}
	.st55{font-size:5.744px;}
	.st56{font-size:11.021px;}
	.st57{font-size:11.0215px;}
	.st58{font-size:11.0211px;}
	.st59{font-size:11.0206px;}
	.st60{font-size:11.0217px;}
	.st61{font-size:11.0212px;}
</style>
<g id="Camada_2">
	<polyline class="st0" points="1162.4,855.4 1159.9,1011.1 441.9,1026.4 447,580.6 521.7,590.2 826.9,34.2 835.7,38.6 1310.2,275.2 
		1224.7,438 	"/>
	<g>
		<path class="st1" d="M1367.4,1020.4c1.2-1.7,5.1-13.5,2.8-36.2c-2.4-22.7,1.4-39.7,1.4-39.7l37.8-236.8l-149.6-2.8l-31.5-31.9
			l-8.6-11.2l0.8-226.7l10.7-42.1l-15.8-5.5l13.3-48.5c0,0,10.2,2.7,15.5,3.3c-5.2-39.4-36.9-19.3-36.9-19.3l-18.2,37.4
			c0,0,27,22.5,8.6,41.3s7.6,27,7.6,27l-21.4,36.4l21.6,12.7l-11.1,22L1127,464c0,0-43.2,84.2-52.3,100.6
			c-9.1,16.5-23.1,41.6,13.6,55.4c36.7,13.9,42,46.5,42,46.5s-4.4,102.4-0.3,100.2s22.5-1.1,22.5-1.1l-6.7,253.1l-177.3,0.5
			c0,0-383.9,3.3-444.7,0.3c-60.9-3-67.2-64.9-67.2-64.9s1.8-202.3,1-279.1c3.4-75.9,72.7-79.4,72.7-79.4l6.5-10
			c0,0,229.4-428,258.3-479.2c28.9-51.2,86.1-35.2,86.1-35.2s247.1,120.8,272,133.3c39,19.5,33.4,32.4,33.4,32.4s22,9.6,47.7,24.6
			s39.7-3.1,39.7-3.1L827,34.1l-305.2,556l-74.7-9.6l-5.1,445.9c0,0,884.1,9.3,900.3,8C1358.4,1033.1,1366.2,1022.1,1367.4,1020.4z"
			/>
		<path class="st1" d="M1179,386.6l11,7.8c0,0,4.1-11.1-3.3-19.2c-7.3-8.1-10.8,8.9-10.8,8.9L1179,386.6z"/>
	</g>
	<path class="st2" d="M1206.2,329.3c0,0,1.4,57.2,3.4,72.5c2.5,18.6,4.7,51.9,4.2,60.9s-0.4,187.9-0.4,188.2
		c-0.2,17.7,4.7,38.1,18.3,50.5c15.6,14.2,40.5,18.2,65.3,15.2c24.9-3,84.6,1.4,84.7,70.4c1.3,15.7-16.9,106.4-20.5,135.3
		c-12.6,103.5-107.5,98.6-107.5,98.6s-125-0.4-154.7-0.5c-33.1-0.1-570.5-3.3-570.5-3.3s-61.9-0.1-69-58.4c0,0,1.6-247.3,1.4-273.3
		c-1.3-86.8,72.5-86.8,72.5-86.8l267-493.8c0,0,33.3-57,101-21.6c69.4,36.3,262.7,130,262.7,130s14.6,9.9,20.5,21.7"/>
	<g>
		<path class="st3" d="M973,167.4c0,0,33.8,16.5,9.8,57.5S787.1,577.3,787.1,577.3l-10.8,20.8c0,0-3.3,12.8-31.2,12
			c-27.8-0.8-126.2,0.4-126.2,0.4s-52.2,5.6-25-49.3C621,506.4,835,125.1,835,125.1s6.3-21.7,35.5-6.1
			C895.5,132.4,973,167.4,973,167.4z"/>
		<line class="st4" x1="671.9" y1="608.6" x2="925.6" y2="142.5"/>
		<line class="st4" x1="826.8" y1="138.2" x2="982.7" y2="224.6"/>
		<line class="st4" x1="807.2" y1="173.8" x2="963.1" y2="260.2"/>
		<line class="st4" x1="786.3" y1="209.6" x2="942.1" y2="296.1"/>
		<line class="st4" x1="767.7" y1="243.9" x2="923.5" y2="330.4"/>
		<line class="st4" x1="748.4" y1="278.9" x2="904.3" y2="365.3"/>
		<line class="st4" x1="727.9" y1="314.3" x2="883.7" y2="400.7"/>
		<line class="st4" x1="711" y1="350.8" x2="866.9" y2="437.2"/>
		<line class="st4" x1="691.9" y1="384.3" x2="847.7" y2="470.8"/>
		<line class="st4" x1="671.7" y1="419.9" x2="827.5" y2="506.4"/>
		<line class="st4" x1="649.1" y1="452.5" x2="805" y2="538.9"/>
		<line class="st4" x1="634.2" y1="488.8" x2="790" y2="575.3"/>
		<line class="st4" x1="615.9" y1="523.2" x2="693.3" y2="569.3"/>
	</g>
	<g>
		<path class="st3" d="M825.2,576.5c0,0-19,36.2,23.5,36.2s144.8-0.1,144.8-0.1s17.5,4.3,27.6-18.7s156.8-286.2,156.8-286.2
			s19.3-32-10.7-46.3c-20.4-9.7-86.9-43.3-105.9-51.9c-3.3-1.5-29.7-5.4-39.9,13.6C1020.8,224.4,825.2,576.5,825.2,576.5z"/>
		<line class="st4" x1="1013.4" y1="234.4" x2="1170.2" y2="319.2"/>
		<line class="st4" x1="996.2" y1="269.2" x2="1153" y2="354"/>
		<line class="st4" x1="976.9" y1="304.2" x2="1133.7" y2="389"/>
		<line class="st4" x1="955.1" y1="338.9" x2="1111.9" y2="423.6"/>
		<line class="st4" x1="937.1" y1="374.6" x2="1094" y2="459.4"/>
		<line class="st4" x1="917.5" y1="409.9" x2="1074.3" y2="494.6"/>
		<line class="st4" x1="898.2" y1="444.2" x2="1055" y2="529"/>
		<line class="st4" x1="881.5" y1="481" x2="957.8" y2="522.3"/>
		<line class="st4" x1="859.3" y1="515.1" x2="938.6" y2="558.2"/>
		<line class="st4" x1="839.5" y1="550.7" x2="918" y2="593.4"/>
		<line class="st4" x1="947.6" y1="537.2" x2="1027.5" y2="581.7"/>
		<line class="st4" x1="1115.8" y1="233.8" x2="906.5" y2="614.2"/>
	</g>
	<g>
		<path class="st3" d="M948.9,982c-16.6,0-30-13.8-30-30.9l0.2-271.1c0-17,13.5-30.9,30.1-30.8l114.8,0.1c16.6,0,30,13.8,30,30.9
			l-0.2,271.1c0,17-13.5,30.9-30.1,30.8L948.9,982z"/>
		<line class="st4" x1="917.8" y1="693.5" x2="1093.3" y2="694.5"/>
		<line class="st4" x1="918" y1="731.3" x2="1093.5" y2="732.3"/>
		<line class="st4" x1="918" y1="772.1" x2="1093.5" y2="773.1"/>
		<line class="st4" x1="918.3" y1="814.4" x2="1093.8" y2="812.4"/>
		<line class="st4" x1="1008.8" y1="649.8" x2="1004.1" y2="981.3"/>
		<line class="st4" x1="915.8" y1="892.3" x2="1091.3" y2="893.3"/>
		<line class="st4" x1="1005.9" y1="854.8" x2="1092.7" y2="855.4"/>
		<line class="st4" x1="918.9" y1="931.5" x2="1094.4" y2="932.5"/>
	</g>
	<g>
		<path class="st3" d="M733.4,980.8c-17.1,0.1-31-13.9-30.9-31.1l1.2-274.2c0.1-17.2,14-31.3,31.2-31.3l118.6-0.4
			c17.1-0.1,31,13.9,30.9,31.1l-1.2,274.2c-0.1,17.2-14,31.3-31.2,31.3L733.4,980.8z"/>
		<line class="st4" x1="702.4" y1="689.4" x2="795.8" y2="689.5"/>
		<line class="st4" x1="795.6" y1="706.3" x2="885" y2="706.8"/>
		<line class="st4" x1="702.4" y1="727.6" x2="795.1" y2="729.4"/>
		<line class="st4" x1="702.3" y1="768.9" x2="883.6" y2="769.2"/>
		<line class="st4" x1="702.5" y1="811.7" x2="883.8" y2="809"/>
		<line class="st4" x1="796.6" y1="644.9" x2="790.5" y2="980.2"/>
		<line class="st4" x1="703" y1="890.4" x2="884" y2="890.8"/>
		<line class="st4" x1="792.8" y1="852.2" x2="882.6" y2="852.5"/>
		<line class="st4" x1="702.6" y1="930.1" x2="884" y2="930.5"/>
	</g>
	<g>
		<path class="st3" d="M641.3,641.3c17.1-0.3,31.1,13.3,31.3,30.4l2.7,272.4c0.2,17.1-13.6,31.3-30.7,31.6l-118.3,2.1
			c-17.1,0.3-31.1-13.3-31.3-30.4L492.3,675c-0.2-17.1,13.6-31.3,30.7-31.6L641.3,641.3z"/>
		<line class="st4" x1="676.4" y1="927.4" x2="497.9" y2="929.8"/>
		<line class="st4" x1="675.8" y1="889.8" x2="497.3" y2="892.2"/>
		<line class="st4" x1="675.3" y1="849.3" x2="496.8" y2="851.7"/>
		<line class="st4" x1="674.6" y1="807.2" x2="493.5" y2="812.5"/>
		<line class="st4" x1="584.3" y1="972.5" x2="585.6" y2="643"/>
		<line class="st4" x1="674.6" y1="769.2" x2="494" y2="771.5"/>
		<line class="st4" x1="584.4" y1="727" x2="493" y2="728.5"/>
		<line class="st4" x1="672.7" y1="690.9" x2="493" y2="693.2"/>
	</g>
	<path class="st5" d="M1130.3,463.8l77.1-141.3c0,0,11.1-8.9,23.1-3.9s17.1,11.9,10.8,33.7c-6.3,21.8-17.5,82.4-17.5,82.4"/>
	<path class="st6" d="M1302.2,1006.2c26.3-12.9,38.4-49.9,39.7-59c1.2-9.2,1.5-55,0.5-72.2s2-35.8,3.1-40.5c0.2-0.9,0.8-2.6,1.7-4.8
		c1.5-2.9,2.9-6.1,4.2-9.6c1.3-3.5,2.7-6.9,4.1-10.3l0.3-0.8c5-12.3,10.6-26.2,8.8-40.3c-0.7-5.7-3-11.3-4.2-14.1
		c-5.9-13.4-19.4-24-32.8-25.8c-7.6-1-13.9-0.8-19.9,0.7c-4.6,1.2-9.1,3-13.4,4.7c-2.3,0.9-4.6,1.9-7,2.7c-4.8,1.7-10.8,2-16.1,1.8
		c-0.5,0-1.1-0.1-1.7-0.1c-0.5-0.1-0.9-0.1-1.4-0.2c-21.5-3.3-48.1-33.4-52.6-43.9c-4.7-10.9-6-25.3-7.7-55.1
		c-1.8-29.9-23.9-48.5-23.9-48.5s-3.7-5.5-2.3-13.6c5.8-7.3,10.6-14.9,14.6-23.3c1.6-3.3,2.9-6.8,4.1-10.3l0.1-0.4
		c4.8-13,8-24.6,10-35.7c2.5-13.7,3.5-28.3,3-43.5c-0.4-13.9-2-27.9-3.4-41.4c-0.4-3.9-0.8-7.8-1.2-11.6c-1.8-17.5-3-35.3-3.5-52.7
		c-0.3-8-0.5-26.6-0.5-26.6l-4.3,8.1c0,0,0.2,12.4,0.4,18.6c0.5,17.5,1.7,35.3,3.5,53c0.4,3.9,0.8,7.8,1.2,11.7
		c1.5,13.4,3,27.3,3.4,41.1c0.5,14.9-0.5,29.3-2.9,42.6c-2,10.8-5.2,22.2-9.8,34.9l-0.1,0.4c-1.6,4.2-3.2,8.6-5.3,12.5
		c-2.7,4.9-7.1,10.2-13.3,7.9c-3.4-1.3-6.2-5-6.1-8.7c0.1-5.9,1.3-11.7,0.6-17.7c-0.5-4.2-2.4-7.2-4.3-10.8
		c-4.2-7.7-8.6-15.3-12.6-23.1c-1.5-2.9-3.4-6.2-3.8-9.5c-0.9-7.7,12.4-10.3,12.4-10.3l-19.3-12.4c0,0,0.2,3,1.2,6.9
		c1.5,8.6-2.4,13.8-11.6,14.7c-9.2,0.8-14.6-6.8-14.6-6.8l-4.4,8.7c4.6-0.4,8.8,2.7,9.5,7.3c0.8,4.8-2.4,9.4-7.2,10.2
		c-3.7,0.6-7.2-1.1-9-4.2l-15.1,29.9c2,0.7,3.6,2.4,3.9,4.7c0.6,3.3-1.7,6.5-5,7c-1.6,0.3-3.1-0.1-4.4-0.9l-4,8
		c36.4,20,27.3,55.3,27.3,55.3l-4.6,12.3l4.7,3.3c0,0,14.6-15.2,29-2.4c17.2,19.8-2.6,33.3-5.5,35.6c-4.6,2.7-7.2,22.2,3.7,34.8
		c25.1,22.9,0.5,44.2,0.5,44.3c-2,1.7-5.7,2.5-6.6,5.2c-1,3,1.7,6.8,4.7,7.4c6.1,1.2,14.4,6,14.5,13c0,5.9-1.6,73.5-1.6,73.5h-15.5
		l-0.2,38.9l14.3,0.9c0,0-1.1,74.1-1.3,77.7c-1.7-5.3-14.5-4.3-18.3-2.6c-3.5,30.9-22.9,47.9-52.6,57.1l-544.8-3.8
		c-59.3-1.4-61.1-51.7-61.1-52c0-2.3-1.9-242.5,1.3-286.6c0.1-2,4.8-50.3,59.7-58.2c1.7-0.2,7.1,0,9.7-4.2
		c5.2-7.7,10.6-16.8,14.8-24.7c0.7-1.3,248.7-459.1,249.7-461.2c31.3-54.7,84.1-30.5,86.5-29.4L1166.3,224l20.1,13.9l-17.3-18.8
		L895.1,83c-0.6-0.3-61.7-31.7-96.8,32.2c-1.7,3.7-260.2,481.5-260.9,482.9c-2.3,4.4-11.6,5.1-11.6,5.1s-52.9,2.7-60.6,65.9
		c-3.8,44.2-2.3,289.5-2.3,289.5s2.5,54.9,68.3,54.7c58,2.3,625.2,4.3,654.6,4.8C1215.3,1018.8,1275.1,1026.1,1302.2,1006.2z
		 M1102.3,526.2c-0.6-3.7,1.8-7.2,5.5-7.8s7.2,1.8,7.8,5.5s-1.8,7.2-5.5,7.8C1106.4,532.4,1102.9,529.9,1102.3,526.2z M1135.6,610.2
		c-0.9-5.2,2.6-10.1,7.8-11c5.2-0.9,10.1,2.6,11,7.8s-2.6,10.1-7.8,11C1141.4,618.8,1136.4,615.4,1135.6,610.2z M1159.2,608.2
		c-0.4-2.2,0.2-4.3,1.4-5.9c-2.9-1-5.1-3.5-5.7-6.8c-0.8-4.8,2.4-9.4,7.2-10.2c4.8-0.8,9.4,2.4,10.2,7.2c0.5,2.7-0.4,5.3-2.1,7.2
		c2.3,1,4,3.2,4.5,5.8c0.7,4.3-2.1,8.3-6.4,9.1C1163.9,615.4,1159.9,612.5,1159.2,608.2z M1168.7,637.8c-5.2,0.9-10.1-2.6-11-7.8
		s2.6-10.1,7.8-11c4-0.7,7.8,1.3,9.8,4.6c1.1-3.9,4.3-7.1,8.5-7.8c5.8-1,11.4,2.9,12.4,8.8c1,5.8-2.9,11.4-8.8,12.4
		c-4.7,0.8-9.2-1.6-11.3-5.7C1175.1,634.6,1172.4,637.2,1168.7,637.8z M1153.6,741.7c-0.5-3,1.4-5.8,4.3-6.6c-0.8-1.1-1.5-2.5-1.7-4
		c-0.9-5.2,2.6-10.1,7.8-11c5.2-0.9,10.1,2.6,11,7.8s-2.6,10.1-7.8,11c-0.8,0.1-1.6,0.1-2.3,0.1c0.1,0.2,0.2,0.5,0.2,0.7
		c0.5,3.1-1.6,6.1-4.7,6.7C1157.2,747,1154.2,744.9,1153.6,741.7z M1171.6,835.7l-0.4-74.3c0,0,6.3-31.8,37.7-31.6
		c31.3,0.2,30.2,32.9,29.7,36.3c-0.5,3.4-2.5,70.3-2.5,70.3L1171.6,835.7z M1297.6,817.5l-13,2.2l3.2,19l-37.7-1.4l-3.9,0.1
		c0,0-0.4-70.9-0.1-82.2c0.3-11.2,7.6-14.7,19.8-11.8c7.4,1.8,15.8,0.1,22.9-2.5c2.4-0.9,4.8-1.9,7.1-2.8c4.1-1.7,8.4-3.5,12.8-4.5
		c5.4-1.4,11.2-1.5,18.2-0.6c12,1.6,24.1,11.2,29.4,23.2c2,4.5,3.4,9.1,3.9,12.9c1.7,13-3.5,25.7-8.5,38l-0.3,0.8
		c-1.4,3.5-2.8,6.9-4.1,10.4c-1.1,2.8-3.7,7.2-3.9,7c-7.8,10.6-17,8.2-31.2,11.9C1292.9,842.3,1297.6,817.5,1297.6,817.5z
		 M1254.3,1012.2c-50.2,0.7-149-1.9-149-1.9l58.9-31.3c0,0,6.2,0.1,6.1-26.7s0.3-73.3,0.3-73.3l66.6,0.4l3.6,21.2l8-2.5l-0.3-18.4
		l57.2-2c0,0,38.6-3.2,32.6,53.1C1332.2,987.1,1304.5,1011.4,1254.3,1012.2z"/>
	<g id="Caixa_Agua_2_">
		<path class="st7" d="M1091.6,1011.6l68.6,1.1l3.4-32.6l-33.2-0.8C1130.4,979.4,1126.6,1001.3,1091.6,1011.6z"/>
		
			<ellipse transform="matrix(0.9857 -0.1684 0.1684 0.9857 -152.1541 208.3529)" class="st8" cx="1152.3" cy="1001.2" rx="8" ry="8"/>
	</g>
	<g>
		
			<rect x="1174.7" y="887.2" transform="matrix(0.9857 -0.1684 0.1684 0.9857 -139.0566 223.4801)" class="st9" width="146.7" height="88.7"/>
		
			<rect x="1183.2" y="894.1" transform="matrix(0.9857 -0.1684 0.1684 0.9857 -139.0545 223.4883)" class="st10" width="129.8" height="74.9"/>
		
			<rect x="1290.7" y="898.6" transform="matrix(0.9857 -0.1684 0.1684 0.9857 -136.7692 232.3452)" class="st10" width="21.5" height="47.8"/>
		
			<rect x="1184.2" y="929.8" transform="matrix(0.9857 -0.1684 0.1684 0.9857 -141.5756 213.7627)" class="st10" width="10.6" height="23.5"/>
		
			<rect x="1301.5" y="909.8" transform="matrix(0.9857 -0.1684 0.1684 0.9857 -136.5337 233.2318)" class="st10" width="10.6" height="23.5"/>
		
			<rect x="1183.9" y="916.8" transform="matrix(0.9857 -0.1684 0.1684 0.9857 -141.3605 214.6192)" class="st11" width="21.5" height="47.8"/>
		<line class="st12" x1="1241.8" y1="894.7" x2="1254.4" y2="968.6"/>
		
			<ellipse transform="matrix(0.9857 -0.1684 0.1684 0.9857 -139.2619 223.5418)" class="st12" cx="1248.3" cy="932.8" rx="11.8" ry="11.8"/>
		<path class="st12" d="M1281.6,925.9c0.9,5.1,5.7,8.5,10.8,7.7l-3.2-18.5C1284.2,916,1280.8,920.8,1281.6,925.9z"/>
		<path class="st12" d="M1214.5,937.4c0.9,5.1-2.6,9.9-7.7,10.8l-3.2-18.5C1208.8,928.9,1213.6,932.3,1214.5,937.4z"/>
		
			<ellipse transform="matrix(0.9857 -0.1684 0.1684 0.9857 -139.2619 223.5418)" class="st7" cx="1248.3" cy="932.8" rx="1.3" ry="1.3"/>
		
			<ellipse transform="matrix(0.9857 -0.1684 0.1684 0.9857 -141.3375 215.4898)" class="st7" cx="1199.8" cy="941" rx="1.3" ry="1.3"/>
		
			<ellipse transform="matrix(0.9857 -0.1684 0.1684 0.9857 -137.1966 231.5082)" class="st7" cx="1296.3" cy="924.6" rx="1.3" ry="1.3"/>
	</g>
	<g>
		<g>
			<g>
				
					<rect x="1233.3" y="822" transform="matrix(1.158823e-02 -0.9999 0.9999 1.158823e-02 374.3058 2081.5171)" class="st13" width="13.5" height="58.9"/>
				
					<rect x="1233.1" y="836.2" transform="matrix(1.158823e-02 -0.9999 0.9999 1.158823e-02 359.8693 2095.4211)" class="st13" width="13.5" height="58.9"/>
			</g>
		</g>
		
			<rect x="1257.6" y="855.2" transform="matrix(1.158823e-02 -0.9999 0.9999 1.158823e-02 399.4815 2122.0803)" class="st14" width="31.1" height="7.6"/>
		
			<rect x="1182.8" y="850.3" transform="matrix(1.158823e-02 -0.9999 0.9999 1.158823e-02 324.1044 2041.2057)" class="st15" width="23.6" height="12.7"/>
		
			<rect x="1271.5" y="852.7" transform="matrix(1.158823e-02 -0.9999 0.9999 1.158823e-02 409.4272 2132.3958)" class="st15" width="23.6" height="12.7"/>
		
			<rect x="1169.6" y="854.7" transform="matrix(1.158823e-02 -0.9999 0.9999 1.158823e-02 316.4284 2033.2513)" class="st14" width="34.2" height="3.8"/>
	</g>
	<g>
		
			<rect x="1247" y="780.6" transform="matrix(0.9857 -0.1684 0.1684 0.9857 -116.5091 228.2587)" class="st16" width="81" height="40.8"/>
		
			<rect x="1251.2" y="784.5" transform="matrix(0.9857 -0.1684 0.1684 0.9857 -116.5152 228.269)" class="st10" width="72.7" height="33.1"/>
		<line class="st12" x1="1249.6" y1="794.7" x2="1321.2" y2="782.5"/>
		<line class="st12" x1="1253.8" y1="819.3" x2="1325.4" y2="807"/>
		<line class="st12" x1="1261.8" y1="792.6" x2="1266" y2="817.2"/>
		<line class="st12" x1="1310.2" y1="784.4" x2="1314.4" y2="808.9"/>
		<line class="st17" x1="1284.1" y1="781" x2="1291" y2="821.2"/>
		
			<rect x="1284.4" y="815.8" transform="matrix(0.9857 -0.1684 0.1684 0.9857 -119.2135 228.9632)" class="st18" width="11.8" height="3"/>
		
			<rect x="1278.8" y="783.2" transform="matrix(0.9857 -0.1684 0.1684 0.9857 -113.8047 227.5543)" class="st18" width="11.8" height="3"/>
	</g>
	<g id="Volei_1_">
		
			<rect x="1175.5" y="783.9" transform="matrix(0.9857 -0.1684 0.1684 0.9857 -117.5837 214.1871)" class="st19" width="57" height="32.8"/>
		
			<rect x="1179.2" y="786.8" transform="matrix(0.9857 -0.1684 0.1684 0.9857 -117.5919 214.1892)" class="st20" width="49.6" height="27.1"/>
		<line class="st21" x1="1201.6" y1="786" x2="1206.5" y2="814.8"/>
	</g>
	<g>
		
			<rect x="1153.2" y="669.3" transform="matrix(0.9989 -4.730667e-02 4.730667e-02 0.9989 -30.9346 56.629)" class="st22" width="55.4" height="25.1"/>
		
			<rect x="1146" y="666.2" transform="matrix(0.9989 -4.730667e-02 4.730667e-02 0.9989 -31.0115 55.1775)" class="st23" width="8.4" height="33.1"/>
		
			<rect x="1143.3" y="674.6" transform="matrix(0.9989 -4.730667e-02 4.730667e-02 0.9989 -31.032 54.9154)" class="st24" width="2.7" height="16.9"/>
		<g>
			
				<rect x="1152.3" y="648.7" transform="matrix(0.9989 -4.730667e-02 4.730667e-02 0.9989 -29.961 56.5632)" class="st25" width="55.4" height="25.1"/>
			
				<rect x="1154.2" y="688.9" transform="matrix(0.9989 -4.730667e-02 4.730667e-02 0.9989 -31.8606 56.6983)" class="st25" width="55.4" height="25.1"/>
		</g>
	</g>
	<g>
		
			<rect x="1163.1" y="492.8" transform="matrix(0.492 -0.8706 0.8706 0.492 156.9118 1282.0535)" class="st26" width="27.9" height="27.6"/>
		
			<rect x="1080.8" y="576.5" transform="matrix(0.492 -0.8706 0.8706 0.492 41.7606 1252.9052)" class="st27" width="27.3" height="28.4"/>
		
			<rect x="1090.6" y="577.8" transform="matrix(0.492 -0.8706 0.8706 0.492 44.4143 1260.1833)" class="st27" width="22.9" height="28.4"/>
		<polygon class="st27" points="1187.9,515.3 1174.6,507.8 1169.3,517.3 1158.6,511.3 1148.6,528.9 1172.5,542.5 		"/>
		
			<rect x="1105.1" y="554.4" transform="matrix(0.492 -0.8706 0.8706 0.492 88.2946 1278.4172)" class="st27" width="69.1" height="18.3"/>
		
			<linearGradient id="SVGID_1_" gradientUnits="userSpaceOnUse" x1="741.5291" y1="618.8264" x2="741.5291" y2="604.4071" gradientTransform="matrix(-0.492 0.8706 0.8706 0.492 957.8043 -406.9737)">
			<stop  offset="0" style="stop-color:#FFFFFF"/>
			<stop  offset="1" style="stop-color:#000000"/>
		</linearGradient>
		<polygon class="st28" points="1154.4,503.2 1109.3,583 1102.6,579.3 1147.7,499.4 		"/>
		
			<linearGradient id="SVGID_2_" gradientUnits="userSpaceOnUse" x1="741.5024" y1="939.8727" x2="741.5024" y2="925.4534" gradientTransform="matrix(-0.492 0.8706 -0.8706 -0.492 2314.9448 359.9983)">
			<stop  offset="0" style="stop-color:#FFFFFF"/>
			<stop  offset="1" style="stop-color:#000000"/>
		</linearGradient>
		<polygon class="st29" points="1154.4,503.2 1109.3,583 1115.9,586.8 1161,506.9 		"/>
		
			<rect x="1086" y="535.5" transform="matrix(0.492 -0.8706 0.8706 0.492 102.1655 1261.2699)" class="st30" width="91.7" height="15.2"/>
		
			<rect x="1073" y="528.5" transform="matrix(0.492 -0.8706 0.8706 0.492 104.0369 1247.4768)" class="st26" width="95.9" height="12.1"/>
	</g>
	<g>
		<path class="st31" d="M1235.1,299.3l-4,10c1.1,0.7,2.2,1.3,3.5,1.8c9.7,3.9,20.9-1.1,24.9-11.2c2.5-6.2,1.7-12.8-1.6-17.9
			l-9.4,24.4L1235.1,299.3z"/>
		
			<ellipse transform="matrix(0.9705 -0.241 0.241 0.9705 -27.8503 307.4982)" class="st32" cx="1243.2" cy="267.6" rx="8.1" ry="7.8"/>
		<polygon class="st32" points="1236.1,299.9 1246.2,274.6 1259.5,279.9 1249.1,306.8 		"/>
		
			<rect x="1230.7" y="272" transform="matrix(0.3716 -0.9284 0.9284 0.3716 518.5959 1324.2698)" class="st33" width="13.6" height="14.2"/>
		
			<rect x="1215.9" y="291.3" transform="matrix(0.3716 -0.9284 0.9284 0.3716 495.7925 1329.2073)" class="st34" width="27.8" height="14.2"/>
		<polygon class="st35" points="1230.6,313.6 1229.9,318.5 1219.7,314.4 1221.5,310 		"/>
		
			<rect x="1212.5" y="288.3" transform="matrix(0.3716 -0.9284 0.9284 0.3716 498.013 1317.6129)" class="st36" width="19.7" height="5.3"/>
		
			<rect x="1213.2" y="273.4" transform="matrix(0.3716 -0.9284 0.9284 0.3716 503.5646 1305.1097)" class="st37" width="5.3" height="14.3"/>
		<polygon class="st32" points="1212.5,297.6 1209,285.1 1220,289.5 1216.1,299.1 		"/>
	</g>
	<text transform="matrix(1.0218 2.729608e-02 -2.670484e-02 0.9996 1068.8552 753.8554)" class="st18 st38 st39">48</text>
	<text transform="matrix(1.0207 5.500023e-02 -5.380891e-02 0.9986 930.0599 856.978)" class="st18 st38 st40">56</text>
	<text transform="matrix(1 -1.044290e-03 1.044290e-03 1 953.0667 916.6853)" class="st18 st38 st41">420,00 m</text>
	<text transform="matrix(1 -1.044289e-03 1.044289e-03 1 990.6822 913.3698)" class="st18 st38 st42">2</text>
	<text transform="matrix(1 -1.044290e-03 1.044290e-03 1 953.2798 957.1089)" class="st18 st38 st41">432,60 m</text>
	<text transform="matrix(1 -1.044289e-03 1.044289e-03 1 990.8953 953.7934)" class="st18 st38 st42">2</text>
	<text transform="matrix(1 -1.044290e-03 1.044290e-03 1 1012.9446 956.7986)" class="st18 st38 st41">432,60 m</text>
	<text transform="matrix(1 -1.044289e-03 1.044289e-03 1 1050.5601 953.483)" class="st18 st38 st42">2</text>
	<text transform="matrix(1 -1.044290e-03 1.044290e-03 1 1015.9061 678.6234)" class="st18 st38 st41">432,60 m</text>
	<text transform="matrix(1 -1.044289e-03 1.044289e-03 1 1053.5216 675.3078)" class="st18 st38 st42">2</text>
	<text transform="matrix(1 -1.044290e-03 1.044290e-03 1 954.6439 796.1132)" class="st18 st38 st41">420,00 m</text>
	<text transform="matrix(1 -1.044289e-03 1.044289e-03 1 992.2594 792.7977)" class="st18 st38 st42">2</text>
	<text transform="matrix(1 -1.044290e-03 1.044290e-03 1 954.9746 859.3386)" class="st18 st38 st41">840,00 m</text>
	<text transform="matrix(1 -1.044289e-03 1.044289e-03 1 992.5901 856.0229)" class="st18 st38 st42">2</text>
	<text transform="matrix(1 -1.044290e-03 1.044290e-03 1 954.437 755.9865)" class="st18 st38 st41">420,00 m</text>
	<text transform="matrix(1 -1.044289e-03 1.044289e-03 1 992.0525 752.6709)" class="st18 st38 st42">2</text>
	<text transform="matrix(1.0218 2.729608e-02 -2.670484e-02 0.9996 1068.4543 676.8168)" class="st18 st38 st39">46</text>
	<text transform="matrix(1.0218 2.729608e-02 -2.670484e-02 0.9996 1068.655 715.0921)" class="st18 st38 st39">47</text>
	<text transform="matrix(1.022 1.795066e-02 -1.756184e-02 0.9998 1069.1877 793.8607)" class="st18 st38 st39">49</text>
	<text transform="matrix(1.0199 6.765020e-02 -6.618486e-02 0.9978 1069.1797 834.8403)" class="st18 st38 st43">50</text>
	<text transform="matrix(1.0218 2.729608e-02 -2.670484e-02 0.9996 1069.4873 875.3389)" class="st18 st38 st39">51</text>
	<text transform="matrix(1.0218 2.729608e-02 -2.670484e-02 0.9996 1069.6914 914.543)" class="st18 st38 st39">52</text>
	<text transform="matrix(1.0218 2.729608e-02 -2.670484e-02 0.9996 1069.9019 954.9702)" class="st18 st38 st39">53</text>
	<text transform="matrix(-2.729608e-02 1.0218 -0.9996 -2.670484e-02 933.0381 946.9377)" class="st18 st38 st39">54</text>
	<text transform="matrix(-2.729608e-02 1.0218 -0.9996 -2.670484e-02 932.8265 906.5134)" class="st18 st38 st39">55</text>
	<text transform="matrix(1.0218 2.729608e-02 -2.670484e-02 0.9996 929.8065 794.7082)" class="st18 st38 st39">57</text>
	<text transform="matrix(1.0218 2.729608e-02 -2.670484e-02 0.9996 931.801 754.568)" class="st18 st38 st39">58</text>
	<text transform="matrix(1.0218 2.729608e-02 -2.670484e-02 0.9996 931.5988 715.8066)" class="st18 st38 st39">59</text>
	<text transform="matrix(1.0218 2.729608e-02 -2.670484e-02 0.9996 931.4001 677.5293)" class="st18 st38 st39">60</text>
	<text transform="matrix(1.0218 2.729608e-02 -2.670484e-02 0.9996 860.7991 682.6034)" class="st18 st38 st39">61</text>
	<text transform="matrix(0.8985 0.4873 -0.4768 0.879 965.4197 195.3618)" class="st18 st38 st44">21</text>
	<text transform="matrix(0.8985 0.4873 -0.4768 0.879 840.8685 579.2755)" class="st18 st38 st44">10</text>
	<text transform="matrix(0.8985 0.4873 -0.4768 0.879 859.5593 544.0932)" class="st18 st38 st44">11</text>
	<text transform="matrix(0.8985 0.4873 -0.4768 0.879 880.662 504.3722)" class="st18 st38 st44">12</text>
	<text transform="matrix(0.8985 0.4873 -0.4768 0.879 897.8868 471.9603)" class="st18 st38 st44">13</text>
	<text transform="matrix(0.8985 0.4873 -0.4768 0.879 918.857 437.1882)" class="st18 st38 st44">14</text>
	<text transform="matrix(0.8985 0.4873 -0.4768 0.879 937.215 402.6358)" class="st18 st38 st44">15</text>
	<text transform="matrix(0.8985 0.4873 -0.4768 0.879 956.8631 365.6642)" class="st18 st38 st44">16</text>
	<text transform="matrix(0.8985 0.4873 -0.4768 0.879 975.7275 330.17)" class="st18 st38 st44">17</text>
	<text transform="matrix(0.8985 0.4873 -0.4768 0.879 994.3964 295.024)" class="st18 st38 st44">18</text>
	<text transform="matrix(0.8985 0.4873 -0.4768 0.879 1014.089 262.6647)" class="st18 st38 st44">19</text>
	<text transform="matrix(0.8985 0.4873 -0.4768 0.879 1032.4093 228.1818)" class="st18 st38 st44">20</text>
	<text transform="matrix(0.8985 0.4873 -0.4768 0.879 995.2944 592.9579)" class="st18 st38 st44">9</text>
	<text transform="matrix(0.8985 0.4873 -0.4768 0.879 1019.989 546.4842)" class="st18 st38 st44">8</text>
	<text transform="matrix(0.8985 0.4873 -0.4768 0.879 1043.0568 503.0669)" class="st18 st38 st44">7</text>
	<text transform="matrix(0.8985 0.4873 -0.4768 0.879 1062.3182 471.5146)" class="st18 st38 st44">6</text>
	<text transform="matrix(0.8985 0.4873 -0.4768 0.879 1082.1002 434.2857)" class="st18 st38 st44">5</text>
	<text transform="matrix(0.8985 0.4873 -0.4768 0.879 1100.8235 399.0498)" class="st18 st38 st44">4</text>
	<text transform="matrix(0.8985 0.4873 -0.4768 0.879 1119.6865 363.546)" class="st18 st38 st44">3</text>
	<text transform="matrix(0.8985 0.4873 -0.4768 0.879 1139.9863 330.0384)" class="st18 st38 st44">2</text>
	<text transform="matrix(0.8985 0.4873 -0.4768 0.879 1160.4504 291.5235)" class="st18 st38 st44">1</text>
	<text transform="matrix(0.8889 0.5045 -0.4936 0.8697 846.1667 134.0236)" class="st18 st38 st44">45</text>
	<text transform="matrix(0.8889 0.5045 -0.4936 0.8697 828.1486 166.4118)" class="st18 st38 st44">44</text>
	<text transform="matrix(0.8889 0.5045 -0.4936 0.8697 808.3188 202.0612)" class="st18 st38 st44">43</text>
	<text transform="matrix(0.8889 0.5045 -0.4936 0.8697 789.4627 235.9574)" class="st18 st38 st44">42</text>
	<text transform="matrix(0.8889 0.5045 -0.4936 0.8697 770.7465 269.6051)" class="st18 st38 st44">41</text>
	<text transform="matrix(0.8889 0.5045 -0.4936 0.8697 750.4105 306.1664)" class="st18 st38 st44">40</text>
	<text transform="matrix(0.8889 0.5045 -0.4936 0.8697 730.5467 341.8717)" class="st18 st38 st44">39</text>
	<text transform="matrix(0.8889 0.5045 -0.4936 0.8697 711.0114 376.9865)" class="st18 st38 st44">38</text>
	<text transform="matrix(0.8889 0.5045 -0.4936 0.8697 692.3329 410.5618)" class="st18 st38 st44">37</text>
	<text transform="matrix(0.795 0.6424 -0.6285 0.7778 672.6508 445.102)" class="st18 st38 st44">36</text>
	<text transform="matrix(0.8687 0.5387 -0.527 0.8498 653.5575 480.0368)" class="st18 st38 st45">35</text>
	<text transform="matrix(0.9128 0.4601 -0.4501 0.893 633.4189 516.7882)" class="st18 st38 st44">34</text>
	<text transform="matrix(0.8985 0.4873 -0.4768 0.879 626.4717 585.7061)" class="st18 st38 st44">33</text>
	<text transform="matrix(0.8985 0.4873 -0.4768 0.879 947.638 234.4944)" class="st18 st38 st44">22</text>
	<text transform="matrix(0.8985 0.4873 -0.4768 0.879 927.4122 266.6345)" class="st18 st38 st44">23</text>
	<text transform="matrix(0.8985 0.4873 -0.4768 0.879 906.6754 302.7786)" class="st18 st38 st44">24</text>
	<text transform="matrix(0.8985 0.4873 -0.4768 0.879 888.8146 336.9529)" class="st18 st38 st44">25</text>
	<text transform="matrix(0.8985 0.4873 -0.4768 0.879 869.2628 371.9694)" class="st18 st38 st44">26</text>
	<text transform="matrix(0.8985 0.4873 -0.4768 0.879 849.2105 407.2837)" class="st18 st38 st44">27</text>
	<text transform="matrix(0.8985 0.4873 -0.4768 0.879 830.6851 441.1943)" class="st18 st38 st44">28</text>
	<text transform="matrix(0.8985 0.4873 -0.4768 0.879 811.912 475.1478)" class="st18 st38 st44">29</text>
	<text transform="matrix(0.8985 0.4873 -0.4768 0.879 791.5409 511.3307)" class="st18 st38 st44">30</text>
	<text transform="matrix(0.8985 0.4873 -0.4768 0.879 773.867 543.7001)" class="st18 st38 st44">31</text>
	<text transform="matrix(0.9019 0.481 -0.4706 0.8824 753.3754 583.6385)" class="st18 st38 st46">32</text>
	<text transform="matrix(1.0218 2.729608e-02 -2.670484e-02 0.9996 863.3164 743.2762)" class="st18 st38 st39">62</text>
	<text transform="matrix(1.0218 2.729608e-02 -2.670484e-02 0.9996 863.5835 791.8988)" class="st18 st38 st39">63</text>
	<text transform="matrix(1.0218 2.729608e-02 -2.670484e-02 0.9996 863.795 832.3613)" class="st18 st38 st39">64</text>
	<text transform="matrix(1.0218 2.729608e-02 -2.670484e-02 0.9996 864.0209 872.9824)" class="st18 st38 st39">65</text>
	<text transform="matrix(1.0218 2.729608e-02 -2.670484e-02 0.9996 864.2011 913.1519)" class="st18 st38 st39">66</text>
	<text transform="matrix(1.0218 2.729608e-02 -2.670484e-02 0.9996 862.21 954.3371)" class="st18 st38 st39">67</text>
	<text transform="matrix(1.0218 2.729608e-02 -2.670484e-02 0.9996 716.4878 671.7621)" class="st18 st38 st39">74</text>
	<text transform="matrix(1.0218 2.729608e-02 -2.670484e-02 0.9996 716.6898 710.7335)" class="st18 st38 st39">73</text>
	<text transform="matrix(1.0218 2.729608e-02 -2.670484e-02 0.9996 714.6922 750.5142)" class="st18 st38 st39">72</text>
	<text transform="matrix(1.0218 2.729608e-02 -2.670484e-02 0.9996 714.9126 792.4545)" class="st18 st38 st39">71</text>
	<text transform="matrix(1.0218 2.729608e-02 -2.670484e-02 0.9996 715.2183 853.6934)" class="st18 st38 st39">70</text>
	<text transform="matrix(1.0218 2.729608e-02 -2.670484e-02 0.9996 715.5298 913.9244)" class="st18 st38 st39">69</text>
	<text transform="matrix(1.0218 2.729608e-02 -2.670484e-02 0.9996 715.7438 955.0981)" class="st18 st38 st39">68</text>
	<text transform="matrix(1.0218 2.729608e-02 -2.670484e-02 0.9996 647.9681 669.7173)" class="st18 st38 st39">75</text>
	<text transform="matrix(1.0218 2.729608e-02 -2.670484e-02 0.9996 648.291 732.0885)" class="st18 st38 st39">76</text>
	<text transform="matrix(1.0218 2.729608e-02 -2.670484e-02 0.9996 648.5948 790.2473)" class="st18 st38 st39">77</text>
	<text transform="matrix(1.0218 2.729608e-02 -2.670484e-02 0.9996 648.8031 830.4673)" class="st18 st38 st39">78</text>
	<text transform="matrix(1.0218 2.729608e-02 -2.670484e-02 0.9996 649.0149 871.176)" class="st18 st38 st39">79</text>
	<text transform="matrix(1.0218 2.729608e-02 -2.670484e-02 0.9996 649.2153 909.8611)" class="st18 st38 st39">80</text>
	<text transform="matrix(1.0218 2.729608e-02 -2.670484e-02 0.9996 649.4318 951.5986)" class="st18 st38 st39">81</text>
	<text transform="matrix(1.0218 2.729608e-02 -2.670484e-02 0.9996 504.4565 672.6093)" class="st18 st38 st39">89</text>
	<ellipse transform="matrix(0.9694 -0.2454 0.2454 0.9694 -148.6742 145.6236)" class="st47" cx="510" cy="669.4" rx="7" ry="7"/>
	<ellipse transform="matrix(0.9694 -0.2454 0.2454 0.9694 -158.0657 146.8482)" class="st47" cx="510.2" cy="707.7" rx="7" ry="7"/>
	<ellipse transform="matrix(0.9694 -0.2454 0.2454 0.9694 -168.4915 148.1928)" class="st47" cx="510.4" cy="750.2" rx="7" ry="7"/>
	<ellipse transform="matrix(0.9694 -0.2454 0.2454 0.9694 -178.3663 149.4983)" class="st47" cx="510.7" cy="790.5" rx="7" ry="7"/>
	<ellipse transform="matrix(0.9694 -0.2454 0.2454 0.9694 -188.0048 150.7484)" class="st47" cx="510.9" cy="829.8" rx="7" ry="7"/>
	<ellipse transform="matrix(0.9694 -0.2454 0.2454 0.9694 -197.8388 152.0274)" class="st47" cx="511.1" cy="869.9" rx="7" ry="7"/>
	<ellipse transform="matrix(0.9694 -0.2454 0.2454 0.9694 -216.2309 154.4191)" class="st47" cx="511.5" cy="944.9" rx="7" ry="7"/>
	<ellipse transform="matrix(0.9694 -0.2454 0.2454 0.9694 -208.1415 153.3574)" class="st47" cx="511.3" cy="911.9" rx="7" ry="7"/>
	<text transform="matrix(1.0218 2.729608e-02 -2.670484e-02 0.9996 504.6568 710.8401)" class="st18 st38 st39">88</text>
	<text transform="matrix(1.0218 2.729608e-02 -2.670484e-02 0.9996 504.8787 753.4179)" class="st18 st38 st39">87</text>
	<text transform="matrix(1.0218 2.729608e-02 -2.670484e-02 0.9996 505.0876 793.7025)" class="st18 st38 st39">86</text>
	<text transform="matrix(1.0218 2.729608e-02 -2.670484e-02 0.9996 505.2922 833.0189)" class="st18 st38 st39">85</text>
	<text transform="matrix(1.0218 2.729608e-02 -2.670484e-02 0.9996 505.5003 873.0602)" class="st18 st38 st39">84</text>
	<text transform="matrix(1.0218 2.729608e-02 -2.670484e-02 0.9996 505.7198 915.124)" class="st18 st38 st39">83</text>
	<text transform="matrix(1.0218 2.729608e-02 -2.670484e-02 0.9996 505.8916 948.0603)" class="st18 st38 st39">82</text>
	<text transform="matrix(1 -1.044290e-03 1.044290e-03 1 956.4375 717.2109)" class="st18 st38 st41">420,00 m</text>
	<text transform="matrix(1 -1.044289e-03 1.044289e-03 1 994.053 713.8953)" class="st18 st38 st42">2</text>
	<text transform="matrix(1 -1.044290e-03 1.044290e-03 1 741.9758 710.1545)" class="st18 st38 st41">420,00 m</text>
	<text transform="matrix(1 -1.044289e-03 1.044289e-03 1 779.5913 706.839)" class="st18 st38 st42">2</text>
	<text transform="matrix(1 -1.044290e-03 1.044290e-03 1 739.9949 752.8061)" class="st18 st38 st41">420,00 m</text>
	<text transform="matrix(1 -1.044289e-03 1.044289e-03 1 777.6099 749.4905)" class="st18 st38 st42">2</text>
	<text transform="matrix(1 -1.044290e-03 1.044290e-03 1 740.1988 791.8508)" class="st18 st38 st41">420,00 m</text>
	<text transform="matrix(1 -1.044289e-03 1.044289e-03 1 777.8138 788.5353)" class="st18 st38 st42">2</text>
	<text transform="matrix(1 -1.044290e-03 1.044290e-03 1 740.8405 915.3288)" class="st18 st38 st41">420,00 m</text>
	<text transform="matrix(1 -1.044289e-03 1.044289e-03 1 778.4559 912.0132)" class="st18 st38 st42">2</text>
	<text transform="matrix(0.9994 -3.365858e-02 3.365858e-02 0.9994 530.5162 794.4961)" class="st18 st38 st48">420,00 m</text>
	<text transform="matrix(0.9994 -3.365570e-02 3.365570e-02 0.9994 567.9982 789.9495)" class="st18 st38 st49">2</text>
	<text transform="matrix(0.9994 -3.365858e-02 3.365858e-02 0.9994 530.7188 833.2671)" class="st18 st38 st48">420,00 m</text>
	<text transform="matrix(0.9994 -3.365570e-02 3.365570e-02 0.9994 568.2012 828.7205)" class="st18 st38 st49">2</text>
	<text transform="matrix(0.9994 -3.365858e-02 3.365858e-02 0.9994 530.3013 753.1224)" class="st18 st38 st48">420,00 m</text>
	<text transform="matrix(0.9994 -3.365570e-02 3.365570e-02 0.9994 567.7834 748.5768)" class="st18 st38 st49">2</text>
	<text transform="matrix(0.9994 -3.365858e-02 3.365858e-02 0.9994 530.1035 714.9874)" class="st18 st38 st48">420,00 m</text>
	<text transform="matrix(0.9994 -3.365570e-02 3.365570e-02 0.9994 567.5858 710.4418)" class="st18 st38 st49">2</text>
	<text transform="matrix(0.8739 0.4861 -0.4861 0.8739 654.0959 528.7615)" class="st18 st38 st41">420,00 m</text>
	<text transform="matrix(0.8739 0.4861 -0.4861 0.8739 688.5621 544.1788)" class="st18 st38 st50">2</text>
	<text transform="matrix(0.8739 0.4861 -0.4861 0.8739 626.5032 556.4426)" class="st18 st38 st41">699,70 m</text>
	<text transform="matrix(0.8739 0.4861 -0.4861 0.8739 660.969 571.8598)" class="st18 st38 st50">2</text>
	<text transform="matrix(0.8739 0.4861 -0.4861 0.8739 710.7249 561.2332)" class="st18 st38 st41">659,90 m</text>
	<text transform="matrix(0.8739 0.4861 -0.4861 0.8739 745.1907 576.6506)" class="st18 st38 st50">2</text>
	<text transform="matrix(0.8739 0.4861 -0.4861 0.8739 677.0642 492.2029)" class="st18 st38 st41">420,00 m</text>
	<text transform="matrix(0.8739 0.4861 -0.4861 0.8739 711.5297 507.6206)" class="st18 st38 st50">2</text>
	<text transform="matrix(0.8739 0.4861 -0.4861 0.8739 695.0745 457.4487)" class="st18 st38 st41">420,00 m</text>
	<text transform="matrix(0.8739 0.4861 -0.4861 0.8739 729.5403 472.8662)" class="st18 st38 st50">2</text>
	<text transform="matrix(0.8739 0.4861 -0.4861 0.8739 712.8733 423.1011)" class="st18 st38 st41">420,00 m</text>
	<text transform="matrix(0.8739 0.4861 -0.4861 0.8739 747.3393 438.5185)" class="st18 st38 st50">2</text>
	<text transform="matrix(0.8739 0.4861 -0.4861 0.8739 731.5164 387.1636)" class="st18 st38 st41">420,00 m</text>
	<text transform="matrix(0.8739 0.4861 -0.4861 0.8739 765.9823 402.581)" class="st18 st38 st50">2</text>
	<text transform="matrix(0.8739 0.4861 -0.4861 0.8739 753.7087 352.2302)" class="st18 st38 st41">420,00 m</text>
	<text transform="matrix(0.8739 0.4861 -0.4861 0.8739 788.1747 367.6475)" class="st18 st38 st50">2</text>
	<text transform="matrix(0.8739 0.4861 -0.4861 0.8739 771.7219 317.4753)" class="st18 st38 st41">420,00 m</text>
	<text transform="matrix(0.8739 0.4861 -0.4861 0.8739 806.1877 332.8928)" class="st18 st38 st50">2</text>
	<text transform="matrix(0.8739 0.4861 -0.4861 0.8739 790.3967 281.4739)" class="st18 st38 st41">420,00 m</text>
	<text transform="matrix(0.8739 0.4861 -0.4861 0.8739 824.8629 296.8916)" class="st18 st38 st50">2</text>
	<text transform="matrix(0.8739 0.4861 -0.4861 0.8739 808.2947 246.9385)" class="st18 st38 st41">420,00 m</text>
	<text transform="matrix(0.8739 0.4861 -0.4861 0.8739 842.7608 262.3558)" class="st18 st38 st50">2</text>
	<text transform="matrix(0.8739 0.4861 -0.4861 0.8739 828.6897 211.9695)" class="st18 st38 st41">420,00 m</text>
	<text transform="matrix(0.8739 0.4861 -0.4861 0.8739 863.1557 227.3872)" class="st18 st38 st50">2</text>
	<text transform="matrix(0.8739 0.4861 -0.4861 0.8739 848.1257 177.0933)" class="st18 st38 st41">420,00 m</text>
	<text transform="matrix(0.8739 0.4861 -0.4861 0.8739 882.5911 192.5104)" class="st18 st38 st50">2</text>
	<text transform="matrix(0.8783 0.4781 -0.4781 0.8783 864.967 145.1478)" class="st18 st38 st51">413,20 m</text>
	<text transform="matrix(0.8782 0.4782 -0.4782 0.8782 899.5718 160.2509)" class="st18 st38 st52">2</text>
	<text transform="matrix(0.8765 0.4814 -0.4814 0.8765 917.5151 175.634)" class="st18 st38 st41">451,90 m</text>
	<text transform="matrix(0.8765 0.4813 -0.4813 0.8765 952.0643 190.8649)" class="st18 st38 st53">2</text>
	<text transform="matrix(0.8739 0.4861 -0.4861 0.8739 900.6931 206.2713)" class="st18 st38 st41">420,00 m</text>
	<text transform="matrix(0.8739 0.4861 -0.4861 0.8739 935.1592 221.6887)" class="st18 st38 st50">2</text>
	<text transform="matrix(0.8739 0.4861 -0.4861 0.8739 881.3313 241.8594)" class="st18 st38 st41">420,00 m</text>
	<text transform="matrix(0.8739 0.4861 -0.4861 0.8739 915.7975 257.277)" class="st18 st38 st50">2</text>
	<text transform="matrix(0.8739 0.4861 -0.4861 0.8739 1034.5354 272.2874)" class="st18 st38 st41">420,00 m</text>
	<text transform="matrix(0.8739 0.4861 -0.4861 0.8739 1069.0015 287.7049)" class="st18 st38 st50">2</text>
	<text transform="matrix(0.8739 0.4861 -0.4861 0.8739 1016.4109 305.4585)" class="st18 st38 st41">420,00 m</text>
	<text transform="matrix(0.8739 0.4861 -0.4861 0.8739 1050.877 320.876)" class="st18 st38 st50">2</text>
	<text transform="matrix(0.8739 0.4861 -0.4861 0.8739 998.6809 341.6492)" class="st18 st38 st41">420,00 m</text>
	<text transform="matrix(0.8739 0.4861 -0.4861 0.8739 1033.1469 357.0667)" class="st18 st38 st50">2</text>
	<text transform="matrix(0.8739 0.4861 -0.4861 0.8739 976.9768 378.7383)" class="st18 st38 st41">420,00 m</text>
	<text transform="matrix(0.8739 0.4861 -0.4861 0.8739 1011.4429 394.1557)" class="st18 st38 st50">2</text>
	<text transform="matrix(0.8739 0.4861 -0.4861 0.8739 957.3337 414.0046)" class="st18 st38 st41">420,00 m</text>
	<text transform="matrix(0.8739 0.4861 -0.4861 0.8739 991.7998 429.4221)" class="st18 st38 st50">2</text>
	<text transform="matrix(0.8739 0.4861 -0.4861 0.8739 938.1619 447.2605)" class="st18 st38 st41">420,00 m</text>
	<text transform="matrix(0.8739 0.4861 -0.4861 0.8739 972.628 462.6779)" class="st18 st38 st50">2</text>
	<text transform="matrix(0.8739 0.4861 -0.4861 0.8739 921.9602 479.4644)" class="st18 st38 st41">420,00 m</text>
	<text transform="matrix(0.8739 0.4861 -0.4861 0.8739 956.4261 494.8817)" class="st18 st38 st50">2</text>
	<text transform="matrix(0.8739 0.4861 -0.4861 0.8739 901.9954 515.1592)" class="st18 st38 st41">420,00 m</text>
	<text transform="matrix(0.8739 0.4861 -0.4861 0.8739 936.4618 530.5768)" class="st18 st38 st50">2</text>
	<text transform="matrix(0.8739 0.4861 -0.4861 0.8739 880.2209 554.4287)" class="st18 st38 st41">420,00 m</text>
	<text transform="matrix(0.8739 0.4861 -0.4861 0.8739 914.687 569.8465)" class="st18 st38 st50">2</text>
	<text transform="matrix(0.8739 0.4861 -0.4861 0.8739 855.8455 588.3738)" class="st18 st38 st41">451,70 m</text>
	<text transform="matrix(0.8739 0.4861 -0.4861 0.8739 890.3112 603.7914)" class="st18 st38 st50">2</text>
	<text transform="matrix(0.8739 0.4861 -0.4861 0.8739 947.7244 569.5171)" class="st18 st38 st41">631,80 m</text>
	<text transform="matrix(0.8739 0.4861 -0.4861 0.8739 982.1898 584.9342)" class="st18 st38 st50">2</text>
	<text transform="matrix(0.8739 0.4861 -0.4861 0.8739 972.405 518.6555)" class="st18 st38 st41">630,80 m</text>
	<text transform="matrix(0.8739 0.4861 -0.4861 0.8739 1006.871 534.073)" class="st18 st38 st50">2</text>
	<text transform="matrix(0.8739 0.4862 -0.4862 0.8739 993.3875 478.0124)" class="st18 st38 st54">420,00 m</text>
	<text transform="matrix(0.8739 0.4861 -0.4861 0.8739 1027.853 493.4341)" class="st18 st38 st55">2</text>
	<text transform="matrix(0.8809 0.4733 -0.4733 0.8809 1013.3885 443.954)" class="st18 st38 st41">420,00 m</text>
	<text transform="matrix(0.8809 0.4732 -0.4732 0.8809 1048.0753 458.8674)" class="st18 st38 st50">2</text>
	<text transform="matrix(0.8826 0.4701 -0.4701 0.8826 1032.6664 409.1076)" class="st18 st38 st41">420,00 m</text>
	<text transform="matrix(0.8827 0.47 -0.47 0.8827 1067.4087 423.8923)" class="st18 st38 st42">2</text>
	<text transform="matrix(0.8826 0.4701 -0.4701 0.8826 1053.8212 372.8183)" class="st18 st38 st41">420,00 m</text>
	<text transform="matrix(0.8827 0.47 -0.47 0.8827 1088.5641 387.6035)" class="st18 st38 st42">2</text>
	<text transform="matrix(0.8826 0.4701 -0.4701 0.8826 1070.7733 338.5663)" class="st18 st38 st41">420,00 m</text>
	<text transform="matrix(0.8827 0.47 -0.47 0.8827 1105.5151 353.3511)" class="st18 st38 st42">2</text>
	<text transform="matrix(0.8826 0.4701 -0.4701 0.8826 1091.2421 301.2177)" class="st18 st38 st41">420,00 m</text>
	<text transform="matrix(0.8827 0.47 -0.47 0.8827 1125.9844 316.0028)" class="st18 st38 st42">2</text>
	<text transform="matrix(0.8826 0.4701 -0.4701 0.8826 1109.3475 269.4904)" class="st18 st38 st41">451,90 m</text>
	<text transform="matrix(0.8827 0.47 -0.47 0.8827 1144.0902 284.2755)" class="st18 st38 st42">2</text>
	<text transform="matrix(0.8826 0.4701 -0.4701 0.8826 1053.35 238.1628)" class="st18 st38 st41">413,20 m</text>
	<text transform="matrix(0.8827 0.47 -0.47 0.8827 1088.0916 252.9473)" class="st18 st38 st42">2</text>
	<text transform="matrix(0.8739 0.4861 -0.4861 0.8739 862.1482 277.1064)" class="st18 st38 st41">420,00 m</text>
	<text transform="matrix(0.8739 0.4861 -0.4861 0.8739 896.6144 292.524)" class="st18 st38 st50">2</text>
	<text transform="matrix(0.8739 0.4861 -0.4861 0.8739 844.6213 313.5105)" class="st18 st38 st41">420,00 m</text>
	<text transform="matrix(0.8739 0.4861 -0.4861 0.8739 879.0874 328.9281)" class="st18 st38 st50">2</text>
	<text transform="matrix(0.8739 0.4861 -0.4861 0.8739 824.1975 346.824)" class="st18 st38 st41">420,00 m</text>
	<text transform="matrix(0.8739 0.4861 -0.4861 0.8739 858.6633 362.2417)" class="st18 st38 st50">2</text>
	<text transform="matrix(0.8739 0.4861 -0.4861 0.8739 805.0276 382.0449)" class="st18 st38 st41">420,00 m</text>
	<text transform="matrix(0.8739 0.4861 -0.4861 0.8739 839.4937 397.4625)" class="st18 st38 st50">2</text>
	<text transform="matrix(0.8739 0.4861 -0.4861 0.8739 786.5637 415.9409)" class="st18 st38 st41">420,00 m</text>
	<text transform="matrix(0.8739 0.4861 -0.4861 0.8739 821.0297 431.3582)" class="st18 st38 st50">2</text>
	<text transform="matrix(0.8739 0.4861 -0.4861 0.8739 766.9343 452.0303)" class="st18 st38 st41">420,00 m</text>
	<text transform="matrix(0.8739 0.4861 -0.4861 0.8739 801.4003 467.4477)" class="st18 st38 st50">2</text>
	<text transform="matrix(0.8739 0.4861 -0.4861 0.8739 747.9221 486.9521)" class="st18 st38 st41">420,00 m</text>
	<text transform="matrix(0.8739 0.4861 -0.4861 0.8739 782.3881 502.3696)" class="st18 st38 st50">2</text>
	<text transform="matrix(0.8739 0.4861 -0.4861 0.8739 729.0359 521.6477)" class="st18 st38 st41">420,00 m</text>
	<text transform="matrix(0.8739 0.4861 -0.4861 0.8739 763.5025 537.0656)" class="st18 st38 st50">2</text>
	<text transform="matrix(0.9994 -3.365858e-02 3.365858e-02 0.9994 530.9337 874.6681)" class="st18 st38 st48">420,00 m</text>
	<text transform="matrix(0.9994 -3.365570e-02 3.365570e-02 0.9994 568.416 870.1215)" class="st18 st38 st49">2</text>
	<text transform="matrix(0.9994 -3.365858e-02 3.365858e-02 0.9994 531.1381 913.9872)" class="st18 st38 st48">420,00 m</text>
	<text transform="matrix(0.9994 -3.365570e-02 3.365570e-02 0.9994 568.6207 909.4406)" class="st18 st38 st49">2</text>
	<text transform="matrix(1 -1.044290e-03 1.044290e-03 1 806.0146 791.2548)" class="st18 st38 st41">420,00 m</text>
	<text transform="matrix(1 -1.044289e-03 1.044289e-03 1 843.6301 787.9392)" class="st18 st38 st42">2</text>
	<text transform="matrix(1 -1.044290e-03 1.044290e-03 1 806.2336 833.5124)" class="st18 st38 st41">420,00 m</text>
	<text transform="matrix(1 -1.044289e-03 1.044289e-03 1 843.8491 830.1968)" class="st18 st38 st42">2</text>
	<text transform="matrix(1 -1.044290e-03 1.044290e-03 1 804.2347 872.9589)" class="st18 st38 st41">420,00 m</text>
	<text transform="matrix(1 -1.044289e-03 1.044289e-03 1 841.8502 869.6433)" class="st18 st38 st42">2</text>
	<text transform="matrix(1 -1.044290e-03 1.044290e-03 1 802.2484 915.0108)" class="st18 st38 st41">420,00 m</text>
	<text transform="matrix(1 -1.044289e-03 1.044289e-03 1 839.8639 911.6952)" class="st18 st38 st42">2</text>
	<text transform="matrix(1 -1.044290e-03 1.044290e-03 1 956.2413 678.9357)" class="st18 st38 st41">432,60 m</text>
	<text transform="matrix(1 -1.044289e-03 1.044289e-03 1 993.8568 675.6201)" class="st18 st38 st42">2</text>
	<text transform="matrix(1 -1.044290e-03 1.044290e-03 1 805.4578 684.4276)" class="st18 st38 st41">642,60 m</text>
	<text transform="matrix(1 -1.044289e-03 1.044289e-03 1 843.0733 681.1115)" class="st18 st38 st42">2</text>
	<text transform="matrix(1 -1.044290e-03 1.044290e-03 1 805.7741 745.1085)" class="st18 st38 st41">630,00 m</text>
	<text transform="matrix(1 -1.044289e-03 1.044289e-03 1 843.3896 741.7929)" class="st18 st38 st42">2</text>
	<text transform="matrix(1 -1.044290e-03 1.044290e-03 1 741.7651 669.2441)" class="st18 st38 st41">432,60 m</text>
	<text transform="matrix(1 -1.044289e-03 1.044289e-03 1 779.3806 665.928)" class="st18 st38 st42">2</text>
	<text transform="matrix(0.9998 -1.855855e-02 1.855855e-02 0.9998 740.7 855.4566)" class="st18 st38 st41">840,00 m</text>
	<text transform="matrix(0.9998 -1.855855e-02 1.855855e-02 0.9998 778.2476 851.4791)" class="st18 st38 st42">2</text>
	<text transform="matrix(1 -1.044290e-03 1.044290e-03 1 529.4517 671.3667)" class="st18 st38 st41">432,60 m</text>
	<text transform="matrix(1 -1.044289e-03 1.044289e-03 1 567.0667 668.0511)" class="st18 st38 st42">2</text>
	<text transform="matrix(1 -1.044290e-03 1.044290e-03 1 530.8998 949.9329)" class="st18 st38 st41">432,60 m</text>
	<text transform="matrix(1 -1.044289e-03 1.044289e-03 1 568.5153 946.6173)" class="st18 st38 st42">2</text>
	<text transform="matrix(1 -1.044290e-03 1.044290e-03 1 597.3146 950.6262)" class="st18 st38 st41">432,60 m</text>
	<text transform="matrix(1 -1.044289e-03 1.044289e-03 1 634.9301 947.3106)" class="st18 st38 st42">2</text>
	<text transform="matrix(1 -1.044290e-03 1.044290e-03 1 741.0544 956.5045)" class="st18 st38 st41">432,60 m</text>
	<text transform="matrix(1 -1.044289e-03 1.044289e-03 1 778.6699 953.1888)" class="st18 st38 st42">2</text>
	<text transform="matrix(1 -1.044290e-03 1.044290e-03 1 800.2572 956.1956)" class="st18 st38 st41">432,60 m</text>
	<text transform="matrix(1 -1.044289e-03 1.044289e-03 1 837.8722 952.8799)" class="st18 st38 st42">2</text>
	<g>
		<text transform="matrix(1 -1.044290e-03 1.044290e-03 1 1016.1052 716.9005)" class="st18 st38 st41">420,00 m</text>
		<text transform="matrix(1 -1.044289e-03 1.044289e-03 1 1053.7207 713.585)" class="st18 st38 st42">2</text>
	</g>
	<g>
		<text transform="matrix(1 -1.044290e-03 1.044290e-03 1 1016.3049 755.6641)" class="st18 st38 st41">420,00 m</text>
		<text transform="matrix(1 -1.044289e-03 1.044289e-03 1 1053.9204 752.3484)" class="st18 st38 st42">2</text>
	</g>
	<g>
		<text transform="matrix(1 -1.044290e-03 1.044290e-03 1 1014.3107 795.8029)" class="st18 st38 st41">420,00 m</text>
		<text transform="matrix(1 -1.044289e-03 1.044289e-03 1 1051.9261 792.4873)" class="st18 st38 st42">2</text>
	</g>
	<g>
		<text transform="matrix(1 -1.044290e-03 1.044290e-03 1 1014.5255 836.9355)" class="st18 st38 st41">420,00 m</text>
		<text transform="matrix(1 -1.044289e-03 1.044289e-03 1 1052.141 833.6199)" class="st18 st38 st42">2</text>
	</g>
	<g>
		<text transform="matrix(1 -1.044290e-03 1.044290e-03 1 1014.7345 877.1609)" class="st18 st38 st41">420,00 m</text>
		<text transform="matrix(1 -1.044289e-03 1.044289e-03 1 1052.35 873.8453)" class="st18 st38 st42">2</text>
	</g>
	<g>
		<text transform="matrix(1 -1.044290e-03 1.044290e-03 1 1012.7335 916.374)" class="st18 st38 st41">420,00 m</text>
		<text transform="matrix(1 -1.044289e-03 1.044289e-03 1 1050.3489 913.0584)" class="st18 st38 st42">2</text>
	</g>
	<ellipse transform="matrix(0.9857 -0.1684 0.1684 0.9857 -98.0887 190.4833)" class="st47" cx="1074" cy="673.5" rx="7" ry="7"/>
	<ellipse transform="matrix(0.9857 -0.1684 0.1684 0.9857 -69.4716 183.51)" class="st47" cx="1047.2" cy="501.3" rx="7" ry="7"/>
	<ellipse transform="matrix(0.9857 -0.1684 0.1684 0.9857 -77.1111 180.2399)" class="st47" cx="1024.1" cy="544.7" rx="7" ry="7"/>
	<ellipse transform="matrix(0.9857 -0.1684 0.1684 0.9857 -18.9352 166.4505)" class="st47" cx="971.9" cy="194.9" rx="7" ry="7"/>
	<ellipse transform="matrix(0.9857 -0.1684 0.1684 0.9857 -25.7909 164.0151)" class="st47" cx="954.1" cy="234.1" rx="7" ry="7"/>
	<ellipse transform="matrix(0.9857 -0.1684 0.1684 0.9857 -43.8747 155.5746)" class="st47" cx="895.3" cy="336.5" rx="7" ry="7"/>
	<ellipse transform="matrix(0.9857 -0.1684 0.1684 0.9857 -31.4846 161.0708)" class="st47" cx="933.9" cy="266.2" rx="7" ry="7"/>
	<ellipse transform="matrix(0.9857 -0.1684 0.1684 0.9857 -85.2946 176.7455)" class="st47" cx="999.4" cy="591.2" rx="7" ry="7"/>
	<ellipse transform="matrix(0.9857 -0.1684 0.1684 0.9857 -57.3299 189.0943)" class="st47" cx="1086.2" cy="432.5" rx="7" ry="7"/>
	<ellipse transform="matrix(0.9857 -0.1684 0.1684 0.9857 -63.8942 186.295)" class="st47" cx="1066.4" cy="469.9" rx="7" ry="7"/>
	<ellipse transform="matrix(0.9857 -0.1684 0.1684 0.9857 -51.1355 191.7415)" class="st47" cx="1104.9" cy="397.4" rx="7" ry="7"/>
	<ellipse transform="matrix(0.9857 -0.1684 0.1684 0.9857 -44.8863 194.4168)" class="st47" cx="1123.8" cy="361.8" rx="7" ry="7"/>
	<ellipse transform="matrix(0.9857 -0.1684 0.1684 0.9857 -37.8587 158.0993)" class="st47" cx="913.2" cy="302.3" rx="7" ry="7"/>
	<ellipse transform="matrix(0.9857 -0.1684 0.1684 0.9857 -38.9549 197.3569)" class="st47" cx="1144.1" cy="328.3" rx="7" ry="7"/>
	<ellipse transform="matrix(0.9857 -0.1684 0.1684 0.9857 -56.2789 149.9097)" class="st47" cx="855.7" cy="406.8" rx="7" ry="7"/>
	<ellipse transform="matrix(0.974 -0.2267 0.2267 0.974 -8.1308 196.7688)" class="st47" cx="852.6" cy="133.8" rx="7" ry="7"/>
	<ellipse transform="matrix(0.974 -0.2267 0.2267 0.974 -15.9435 193.5324)" class="st47" cx="834.6" cy="166.2" rx="7" ry="7"/>
	<ellipse transform="matrix(0.974 -0.2267 0.2267 0.974 -24.5363 189.9463)" class="st47" cx="814.7" cy="201.8" rx="7" ry="7"/>
	<ellipse transform="matrix(0.974 -0.2267 0.2267 0.974 -32.7081 186.5665)" class="st47" cx="795.9" cy="235.7" rx="7" ry="7"/>
	<ellipse transform="matrix(0.974 -0.2267 0.2267 0.974 -40.8118 183.1994)" class="st47" cx="777.2" cy="269.3" rx="7" ry="7"/>
	<ellipse transform="matrix(0.974 -0.2267 0.2267 0.974 -49.6429 179.5305)" class="st47" cx="756.8" cy="305.9" rx="7" ry="7"/>
	<ellipse transform="matrix(0.974 -0.2267 0.2267 0.974 -58.2484 175.9704)" class="st47" cx="737" cy="341.6" rx="7" ry="7"/>
	<ellipse transform="matrix(0.974 -0.2267 0.2267 0.974 -66.7194 172.441)" class="st47" cx="717.4" cy="376.7" rx="7" ry="7"/>
	<ellipse transform="matrix(0.974 -0.2267 0.2267 0.974 -74.8241 169.0783)" class="st47" cx="698.7" cy="410.3" rx="7" ry="7"/>
	
		<ellipse transform="matrix(0.9979 -6.523816e-02 6.523816e-02 0.9979 -27.6441 45.248)" class="st47" cx="679" cy="445.9" rx="7" ry="7"/>
	<ellipse transform="matrix(0.982 -0.1887 0.1887 0.982 -78.7122 133.1663)" class="st47" cx="660" cy="480" rx="7" ry="7"/>
	<ellipse transform="matrix(0.9616 -0.2745 0.2745 0.9616 -117.1147 195.4545)" class="st47" cx="639.8" cy="516.2" rx="7" ry="7"/>
	<ellipse transform="matrix(0.9694 -0.2454 0.2454 0.9694 -124.2712 173.2388)" class="st47" cx="633" cy="585.3" rx="7" ry="7"/>
	<ellipse transform="matrix(0.9694 -0.2454 0.2454 0.9694 -173.1428 184.6124)" class="st47" cx="654.2" cy="787.1" rx="7" ry="7"/>
	<ellipse transform="matrix(0.9694 -0.2454 0.2454 0.9694 -183.0026 185.8896)" class="st47" cx="654.4" cy="827.3" rx="7" ry="7"/>
	<ellipse transform="matrix(0.9694 -0.2454 0.2454 0.9694 -192.985 187.1833)" class="st47" cx="654.6" cy="868" rx="7" ry="7"/>
	<ellipse transform="matrix(0.9694 -0.2454 0.2454 0.9694 -202.4756 188.4167)" class="st47" cx="654.8" cy="906.7" rx="7" ry="7"/>
	<ellipse transform="matrix(0.9694 -0.2454 0.2454 0.9694 -212.7042 189.7392)" class="st47" cx="655" cy="948.4" rx="7" ry="7"/>
	<ellipse transform="matrix(0.9694 -0.2454 0.2454 0.9694 -140.2256 233.3891)" class="st47" cx="866.4" cy="679.4" rx="7" ry="7"/>
	<ellipse transform="matrix(0.9694 -0.2454 0.2454 0.9694 -155.0456 235.861)" class="st47" cx="868.9" cy="740.1" rx="7" ry="7"/>
	<ellipse transform="matrix(0.9694 -0.2454 0.2454 0.9694 -196.7099 241.2789)" class="st47" cx="869.8" cy="910" rx="7" ry="7"/>
	<ellipse transform="matrix(0.9694 -0.2454 0.2454 0.9694 -206.8819 242.0491)" class="st47" cx="867.8" cy="951.2" rx="7" ry="7"/>
	<ellipse transform="matrix(0.9694 -0.2454 0.2454 0.9694 -186.8518 239.9988)" class="st47" cx="869.6" cy="869.8" rx="7" ry="7"/>
	<ellipse transform="matrix(0.9694 -0.2454 0.2454 0.9694 -176.8929 238.7088)" class="st47" cx="869.4" cy="829.2" rx="7" ry="7"/>
	<ellipse transform="matrix(0.9694 -0.2454 0.2454 0.9694 -166.9693 237.3957)" class="st47" cx="869.1" cy="788.7" rx="7" ry="7"/>
	<ellipse transform="matrix(0.9694 -0.2454 0.2454 0.9694 -158.8703 182.7563)" class="st47" cx="653.9" cy="728.9" rx="7" ry="7"/>
	<ellipse transform="matrix(0.9694 -0.2454 0.2454 0.9694 -143.5746 180.7493)" class="st47" cx="653.5" cy="666.5" rx="7" ry="7"/>
	<ellipse transform="matrix(0.9677 -0.2522 0.2522 0.9677 -122.5204 210.5004)" class="st47" cx="759.9" cy="583.2" rx="7" ry="7"/>
	<ellipse transform="matrix(0.9694 -0.2454 0.2454 0.9694 -109.4562 208.1265)" class="st47" cx="780.4" cy="543.3" rx="7" ry="7"/>
	<ellipse transform="matrix(0.9694 -0.2454 0.2454 0.9694 -100.9719 211.4537)" class="st47" cx="798" cy="510.9" rx="7" ry="7"/>
	<ellipse transform="matrix(0.9694 -0.2454 0.2454 0.9694 -64.38 226.2791)" class="st47" cx="875.8" cy="371.5" rx="7" ry="7"/>
	<ellipse transform="matrix(0.9694 -0.2454 0.2454 0.9694 -82.5668 218.9309)" class="st47" cx="837.2" cy="440.8" rx="7" ry="7"/>
	<ellipse transform="matrix(0.9694 -0.2454 0.2454 0.9694 -91.4631 215.3515)" class="st47" cx="818.4" cy="474.7" rx="7" ry="7"/>
	<ellipse transform="matrix(0.9694 -0.2454 0.2454 0.9694 -35.5217 294.6577)" class="st47" cx="1164.6" cy="289.9" rx="7" ry="7"/>
	
		<ellipse transform="matrix(0.9857 -0.1684 0.1684 0.9857 -104.5354 191.0648)" class="st47" cx="1074.2" cy="711.8" rx="7" ry="7"/>
	<ellipse transform="matrix(0.9857 -0.1684 0.1684 0.9857 -111.0663 191.654)" class="st47" cx="1074.4" cy="750.6" rx="7" ry="7"/>
	
		<ellipse transform="matrix(0.9857 -0.1684 0.1684 0.9857 -117.8166 192.2599)" class="st47" cx="1074.6" cy="790.7" rx="7" ry="7"/>
	
		<ellipse transform="matrix(0.9857 -0.1684 0.1684 0.9857 -124.7312 192.8963)" class="st47" cx="1074.9" cy="831.8" rx="7" ry="7"/>
	
		<ellipse transform="matrix(0.9857 -0.1684 0.1684 0.9857 -131.5147 193.5079)" class="st47" cx="1075.1" cy="872.1" rx="7" ry="7"/>
	
		<ellipse transform="matrix(0.9857 -0.1684 0.1684 0.9857 -138.1132 194.1016)" class="st47" cx="1075.3" cy="911.3" rx="7" ry="7"/>
	<ellipse transform="matrix(0.9857 -0.1684 0.1684 0.9857 -144.914 194.7119)" class="st47" cx="1075.5" cy="951.7" rx="7" ry="7"/>
	<ellipse transform="matrix(0.9857 -0.1684 0.1684 0.9857 -147.0235 171.2635)" class="st47" cx="936.2" cy="952.4" rx="7" ry="7"/>
	<ellipse transform="matrix(0.9857 -0.1684 0.1684 0.9857 -140.2226 170.6533)" class="st47" cx="936" cy="912" rx="7" ry="7"/>
	<ellipse transform="matrix(0.9899 -0.1416 0.1416 0.9899 -111.4776 141.102)" class="st47" cx="935.7" cy="853.8" rx="7" ry="7"/>
	<ellipse transform="matrix(0.9857 -0.1684 0.1684 0.9857 -119.9218 168.8279)" class="st47" cx="935.4" cy="791.4" rx="7" ry="7"/>
	<ellipse transform="matrix(0.9857 -0.1684 0.1684 0.9857 -113.1401 168.5928)" class="st47" cx="937.4" cy="751.3" rx="7" ry="7"/>
	<ellipse transform="matrix(0.9857 -0.1684 0.1684 0.9857 -106.6093 168.0037)" class="st47" cx="937.2" cy="712.5" rx="7" ry="7"/>
	<ellipse transform="matrix(0.9857 -0.1684 0.1684 0.9857 -100.1626 167.4221)" class="st47" cx="937" cy="674.2" rx="7" ry="7"/>
	<g>
		<text transform="matrix(1 -1.063998e-03 1.063998e-03 1 758.0463 634.3172)" class="st7 st38 st56">Alameda do Baro</text>
	</g>
	<g>
		<text transform="matrix(0.5051 -0.8631 0.8631 0.5051 1078.545 519.8843)" class="st7 st38 st57">Alameda do Imperador</text>
	</g>
	<g>
		<text transform="matrix(0.4827 -0.8758 0.8758 0.4827 887.8425 435.9514)" class="st7 st38 st58">Alameda do Prncipe</text>
	</g>
	<g>
		<text transform="matrix(0.4872 -0.8733 0.8733 0.4872 666.9642 404.4162)" class="st7 st38 st58">Alameda do Marqus</text>
	</g>
	<g>
		<text transform="matrix(0.9013 0.4331 -0.4331 0.9013 962.7427 151.0327)" class="st7 st38 st59">Alameda do Comendador</text>
	</g>
	<g>
		<text transform="matrix(-5.438742e-03 -1 1 -5.438742e-03 482.7816 870.214)" class="st7 st38 st58">Alameda do Conde</text>
	</g>
	<g>
		<text transform="matrix(1 9.641847e-03 -9.641847e-03 1 753.2061 996.7222)" class="st7 st38 st60">Alameda do Visconde</text>
	</g>
	<g>
		<text transform="matrix(-1.459038e-02 -0.9999 0.9999 -1.459038e-02 692.3203 848.8846)" class="st7 st38 st58">Alameda do Duque</text>
	</g>
	<g>
		<text transform="matrix(-4.161399e-03 -1 1 -4.161399e-03 904.064 857.4166)" class="st7 st38 st61">Alameda do Regente</text>
	</g>
	<g>
		<text transform="matrix(-2.617648e-03 -1 1 -2.617648e-03 1110.2877 849.8439)" class="st7 st38 st58">Alameda do Rei</text>
	</g>
	<text transform="matrix(1 -5.205319e-03 5.205319e-03 1 596.0054 673.7943)" class="st18 st38 st41">432,60 m</text>
	<text transform="matrix(1 -5.205248e-03 5.205248e-03 1 633.6022 670.3179)" class="st18 st38 st50">2</text>
	<text transform="matrix(1 -5.205319e-03 5.205319e-03 1 596.3182 733.7202)" class="st18 st38 st41">840,00 m</text>
	<text transform="matrix(1 -5.205248e-03 5.205248e-03 1 633.9151 730.2439)" class="st18 st38 st50">2</text>
	<text transform="matrix(1 -5.205319e-03 5.205319e-03 1 596.6227 792.3962)" class="st18 st38 st41">420,00 m</text>
	<text transform="matrix(1 -5.205248e-03 5.205248e-03 1 634.2195 788.9199)" class="st18 st38 st50">2</text>
	<text transform="matrix(1 -5.205319e-03 5.205319e-03 1 596.8437 834.6553)" class="st18 st38 st41">420,00 m</text>
	<text transform="matrix(1 -5.205248e-03 5.205248e-03 1 634.4405 831.179)" class="st18 st38 st50">2</text>
	<text transform="matrix(1 -5.205319e-03 5.205319e-03 1 597.0637 874.9155)" class="st18 st38 st41">420,00 m</text>
	<text transform="matrix(1 -5.205248e-03 5.205248e-03 1 634.6608 871.4391)" class="st18 st38 st50">2</text>
	<text transform="matrix(1 -5.205319e-03 5.205319e-03 1 597.2827 913.1757)" class="st18 st38 st41">420,00 m</text>
	<text transform="matrix(1 -5.205248e-03 5.205248e-03 1 634.8795 909.6993)" class="st18 st38 st50">2</text>
	<ellipse transform="matrix(0.9857 -0.1684 0.1684 0.9857 -29.5874 175.6149)" class="st47" cx="1020.6" cy="262.2" rx="7" ry="7"/>
	<ellipse transform="matrix(0.9857 -0.1684 0.1684 0.9857 -35.325 172.7616)" class="st47" cx="1000.9" cy="294.6" rx="7" ry="7"/>
	<ellipse transform="matrix(0.9857 -0.1684 0.1684 0.9857 -47.7531 167.4377)" class="st47" cx="963.3" cy="365.3" rx="7" ry="7"/>
	<ellipse transform="matrix(0.9857 -0.1684 0.1684 0.9857 -66.4933 159.0377)" class="st47" cx="904.4" cy="471.5" rx="7" ry="7"/>
	<ellipse transform="matrix(0.578 -0.8161 0.8161 0.578 -114.8237 935.8196)" class="st47" cx="847.4" cy="578.9" rx="7" ry="7"/>
	<ellipse transform="matrix(0.9857 -0.1684 0.1684 0.9857 -79.1856 153.6008)" class="st47" cx="866" cy="543.7" rx="7" ry="7"/>
	<ellipse transform="matrix(0.9857 -0.1684 0.1684 0.9857 -72.1988 156.5873)" class="st47" cx="887.1" cy="504" rx="7" ry="7"/>
	<ellipse transform="matrix(0.9857 -0.1684 0.1684 0.9857 -60.3365 162.0596)" class="st47" cx="925.3" cy="436.8" rx="7" ry="7"/>
	<ellipse transform="matrix(0.9857 -0.1684 0.1684 0.9857 -41.475 170.0585)" class="st47" cx="981.9" cy="329.6" rx="7" ry="7"/>
	<ellipse transform="matrix(0.9857 -0.1684 0.1684 0.9857 -23.5168 178.2033)" class="st47" cx="1038.9" cy="227.8" rx="7" ry="7"/>
	<ellipse transform="matrix(0.9857 -0.1684 0.1684 0.9857 -54.2625 164.6665)" class="st47" cx="943.7" cy="402.2" rx="7" ry="7"/>
	<ellipse transform="matrix(0.9694 -0.2454 0.2454 0.9694 -141.9865 197.6498)" class="st47" cx="722.1" cy="668.6" rx="7" ry="7"/>
	<ellipse transform="matrix(0.9694 -0.2454 0.2454 0.9694 -151.5506 198.8934)" class="st47" cx="722.3" cy="707.6" rx="7" ry="7"/>
	<ellipse transform="matrix(0.9694 -0.2454 0.2454 0.9694 -161.3554 199.612)" class="st47" cx="720.3" cy="747.3" rx="7" ry="7"/>
	<ellipse transform="matrix(0.9694 -0.2454 0.2454 0.9694 -171.6562 200.9494)" class="st47" cx="720.5" cy="789.3" rx="7" ry="7"/>
	<ellipse transform="matrix(0.9694 -0.2454 0.2454 0.9694 -186.6671 202.8925)" class="st47" cx="720.8" cy="850.5" rx="7" ry="7"/>
	<ellipse transform="matrix(0.9694 -0.2454 0.2454 0.9694 -201.4322 204.8057)" class="st47" cx="721.1" cy="910.7" rx="7" ry="7"/>
	<ellipse transform="matrix(0.9694 -0.2454 0.2454 0.9694 -211.5369 206.1165)" class="st47" cx="721.3" cy="951.9" rx="7" ry="7"/>
</g>
</svg>
