<?xml version="1.0" encoding="utf-8"?>
<!-- Generator: Adobe Illustrator 21.0.0, SVG Export Plug-In . SVG Version: 6.00 Build 0)  -->
<svg version="1.1" id="Camada_1" xmlns="http://www.w3.org/2000/svg" xmlns:xlink="http://www.w3.org/1999/xlink" x="0px" y="0px"
	 viewBox="0 0 531.8 512" style="enable-background:new 0 0 531.8 512;" xml:space="preserve">
<style type="text/css">
	.st0{fill:#43352F;}
</style>
<path class="st0" d="M232,239L426.3,44.7c9.4-9.4,24.6-9.4,33.9,0l22.7,22.7c9.4,9.4,9.4,24.5,0,33.9L329,256l154,154.7
	c9.3,9.4,9.3,24.5,0,33.9l-22.7,22.7c-9.4,9.4-24.6,9.4-33.9,0L232,273C222.6,263.6,222.6,248.4,232,239z"/>
<path class="st0" d="M48.9,239L243.3,44.7c9.4-9.4,24.6-9.4,33.9,0l22.7,22.7c9.4,9.4,9.4,24.5,0,33.9L145.9,256l154,154.7
	c9.3,9.4,9.3,24.5,0,33.9l-22.7,22.7c-9.4,9.4-24.6,9.4-33.9,0L48.9,273C39.5,263.6,39.5,248.4,48.9,239z"/>
</svg>
