<?xml version="1.0" encoding="utf-8"?>
<!-- Generator: Adobe Illustrator 21.0.0, SVG Export Plug-In . SVG Version: 6.00 Build 0)  -->
<svg version="1.1" id="Camada_1" xmlns="http://www.w3.org/2000/svg" xmlns:xlink="http://www.w3.org/1999/xlink" x="0px" y="0px"
	 viewBox="0 0 531.8 512" style="enable-background:new 0 0 531.8 512;" xml:space="preserve">
<style type="text/css">
	.st0{fill:#43352F;}
</style>
<path class="st0" d="M299.9,273L105.5,467.3c-9.4,9.4-24.6,9.4-33.9,0l-22.7-22.7c-9.4-9.4-9.4-24.5,0-33.9l154-154.7l-154-154.7
	c-9.3-9.4-9.3-24.5,0-33.9l22.7-22.7c9.4-9.4,24.6-9.4,33.9,0L299.9,239C309.2,248.4,309.2,263.6,299.9,273z"/>
<path class="st0" d="M482.9,273L288.6,467.3c-9.4,9.4-24.6,9.4-33.9,0L232,444.6c-9.4-9.4-9.4-24.5,0-33.9L386,256L232,101.3
	c-9.3-9.4-9.3-24.5,0-33.9l22.7-22.7c9.4-9.4,24.6-9.4,33.9,0L482.9,239C492.3,248.4,492.3,263.6,482.9,273z"/>
</svg>
